<svg id="图层_1" data-name="图层 1" xmlns="http://www.w3.org/2000/svg" xmlns:xlink="http://www.w3.org/1999/xlink" viewBox="0 0 856.54 464.04"><defs><style>.cls-1,.cls-10,.cls-2,.cls-3,.cls-4,.cls-6,.cls-7,.cls-9{fill:none;}.cls-1{clip-rule:evenodd;}.cls-10,.cls-3,.cls-6{stroke:#000;}.cls-3,.cls-4{stroke-miterlimit:10;}.cls-3,.cls-9{stroke-width:0.96px;}.cls-4{stroke:#4472c4;}.cls-4,.cls-7{stroke-width:3px;}.cls-5{fill-rule:evenodd;}.cls-6{stroke-linejoin:round;stroke-width:0.72px;}.cls-7,.cls-9{stroke:#2f528f;}.cls-10,.cls-7,.cls-9{stroke-miterlimit:8;}.cls-8{fill:#ffc000;}.cls-10{stroke-width:2.28px;}.cls-11{clip-path:url(#clip-path);}.cls-12{clip-path:url(#clip-path-2);}.cls-13{font-size:18px;font-family:TimesNewRomanPSMT, Times New Roman;}.cls-14{letter-spacing:0em;}.cls-15{fill:#00b050;}.cls-16{fill:red;}.cls-17{fill:#5b9bd5;}.cls-18{letter-spacing:-0.11em;}.cls-19{letter-spacing:0em;}.cls-20{letter-spacing:0em;}.cls-21{letter-spacing:0em;}.cls-22{letter-spacing:0em;}.cls-23{letter-spacing:-0.01em;}</style><clipPath id="clip-path" transform="translate(-68.52 -53.4)"><polyline class="cls-1" points="0 0 960 0 960 540 0 540"/></clipPath><clipPath id="clip-path-2" transform="translate(-68.52 -53.4)"><rect class="cls-2" width="960" height="540"/></clipPath></defs><title>工作原理</title><rect class="cls-3" x="234.84" y="297" width="173.64" height="91.08" rx="15.18" ry="15.18"/><path class="cls-4" d="M723.9,152.2c-2.55-10.45,10.59-20.08,29.36-21.5a58.12,58.12,0,0,1,22,2.45c7-7.37,23.42-10.16,36.62-6.25a32.14,32.14,0,0,1,6.3,2.57c5.46-6.1,18.77-8.58,29.72-5.54a23.94,23.94,0,0,1,7.73,3.56c8.81-5.77,24.37-6.48,34.77-1.59,4.36,2.06,7.31,4.9,8.32,8,14.43,2.19,22.94,10.49,19,18.55a11.4,11.4,0,0,1-1.24,2c11.58,8.39,8.74,20.42-6.32,26.86A51.81,51.81,0,0,1,894,185.1c-.13,9-13.39,16.28-29.61,16.21a47.77,47.77,0,0,1-15.32-2.48c-5.49,10.12-24.63,15.84-42.75,12.78-7.59-1.29-14.16-4-18.57-7.69-18.55,6.24-42.64,2.88-53.79-7.49l-.41-.39c-12.15.79-23.15-4-24.57-10.78-.76-3.6,1.37-7.19,5.82-9.84-10.51-3.44-14-11-7.89-16.9,3.56-3.39,9.79-5.64,16.78-6Z" transform="translate(-68.52 -53.4)"/><path class="cls-4" d="M725.06,155.15a12.38,12.38,0,0,1-1.16-3m51.29-19.07a39.68,39.68,0,0,1,6.6,2.8m34.74-3.78a9.63,9.63,0,0,1,1.82-2.89m33.4,1.29a15.92,15.92,0,0,1,3.77-3.35m43.18,6.41a8,8,0,0,1,.39,2.63m17.25,18A19.85,19.85,0,0,1,909,159.8M877.4,170c10.18,2.76,16.6,8.53,16.51,14.83m-43.43,9.68a12,12,0,0,1-1.36,4m-61.35,5.05a19.06,19.06,0,0,1-3.39-3.62m-45.1-5.09a36.7,36.7,0,0,1-5.63.79m-5.72-18.91a36.52,36.52,0,0,1-12.86-1.66" transform="translate(-68.52 -53.4)"/><path class="cls-5" d="M778.26,159.74h5.11v.32h-.44a1.28,1.28,0,0,0-1.06.43,2.57,2.57,0,0,0-.22,1.36v7.7a3.73,3.73,0,0,0,.12,1.19.77.77,0,0,0,.36.38,1.65,1.65,0,0,0,.8.21h.44v.33h-5.11v-.33h.42a1.26,1.26,0,0,0,1.07-.43,2.69,2.69,0,0,0,.21-1.35v-7.7a3.9,3.9,0,0,0-.11-1.2.86.86,0,0,0-.36-.38,1.69,1.69,0,0,0-.81-.21h-.42ZM795.44,161h.27v2.65h1.88v.61h-1.88v5.22a1.78,1.78,0,0,0,.23,1.06.7.7,0,0,0,.57.27,1,1,0,0,0,.56-.18,1.2,1.2,0,0,0,.43-.53h.34a2.83,2.83,0,0,1-.87,1.29,1.89,1.89,0,0,1-1.16.44,1.54,1.54,0,0,1-.79-.23,1.32,1.32,0,0,1-.57-.64,3.18,3.18,0,0,1-.19-1.28v-5.42H793v-.29a3.57,3.57,0,0,0,1-.65,5.82,5.82,0,0,0,.9-1.1A10.55,10.55,0,0,0,795.44,161Zm36.12,0h.27v2.65h1.88v.61h-1.88v5.22a1.78,1.78,0,0,0,.23,1.06.7.7,0,0,0,.57.27,1,1,0,0,0,.56-.18,1.2,1.2,0,0,0,.43-.53H834a2.83,2.83,0,0,1-.87,1.29,1.89,1.89,0,0,1-1.16.44,1.54,1.54,0,0,1-.79-.23,1.32,1.32,0,0,1-.57-.64,3.18,3.18,0,0,1-.19-1.28v-5.42h-1.27v-.29a3.57,3.57,0,0,0,1-.65,5.82,5.82,0,0,0,.9-1.1A10.55,10.55,0,0,0,831.56,161Zm-29.32,2.4a3,3,0,0,1,2.22.89,3.28,3.28,0,0,1,.87,2.39h-5.56a4.1,4.1,0,0,0,.87,2.81,2.64,2.64,0,0,0,2.06,1,2.25,2.25,0,0,0,1.38-.44,3.24,3.24,0,0,0,1-1.48l.27.17a4.18,4.18,0,0,1-1.07,2.19,2.87,2.87,0,0,1-2.23,1,3.23,3.23,0,0,1-2.48-1.13,4.3,4.3,0,0,1-1-3,4.56,4.56,0,0,1,1.06-3.22A3.41,3.41,0,0,1,802.24,163.36Zm23,0a3,3,0,0,1,2.22.89,3.28,3.28,0,0,1,.87,2.39h-5.56a4.1,4.1,0,0,0,.87,2.81,2.64,2.64,0,0,0,2.06,1,2.25,2.25,0,0,0,1.38-.44,3.24,3.24,0,0,0,1-1.48l.27.17a4.18,4.18,0,0,1-1.07,2.19,2.87,2.87,0,0,1-2.23,1,3.23,3.23,0,0,1-2.48-1.13,4.3,4.3,0,0,1-1-3,4.56,4.56,0,0,1,1.06-3.22A3.41,3.41,0,0,1,825.28,163.36Zm-38.94,0h.38v1.7a3.8,3.8,0,0,1,2.7-1.7,1.91,1.91,0,0,1,1.13.33,2.21,2.21,0,0,1,.76,1.08,5,5,0,0,1,.19,1.62v3.44a2.91,2.91,0,0,0,.12,1,.73.73,0,0,0,.32.35,1.76,1.76,0,0,0,.79.12v.32h-4v-.32h.17a1.36,1.36,0,0,0,.78-.17.92.92,0,0,0,.32-.51,5.84,5.84,0,0,0,0-.82v-3.3a3.34,3.34,0,0,0-.28-1.59,1,1,0,0,0-1-.5,2.9,2.9,0,0,0-2.08,1.14v4.25a2.87,2.87,0,0,0,.1,1,.8.8,0,0,0,.33.37,2.12,2.12,0,0,0,.88.12v.32h-4v-.32h.17a.93.93,0,0,0,.83-.31,2.22,2.22,0,0,0,.22-1.19v-3a11.75,11.75,0,0,0-.07-1.77.75.75,0,0,0-.2-.43.57.57,0,0,0-.36-.11,1.62,1.62,0,0,0-.59.13l-.13-.32Zm22.1,0h.37v1.81c.67-1.21,1.36-1.81,2.07-1.81a1.14,1.14,0,0,1,.8.29.93.93,0,0,1,.32.68h0l2.42-1h.38v1.7a3.8,3.8,0,0,1,2.7-1.7,1.91,1.91,0,0,1,1.13.33,2.21,2.21,0,0,1,.76,1.08,5,5,0,0,1,.19,1.62v3.44a2.91,2.91,0,0,0,.12,1,.73.73,0,0,0,.32.35,1.76,1.76,0,0,0,.79.12v.32h-4v-.32H817a1.36,1.36,0,0,0,.78-.17.92.92,0,0,0,.32-.51,5.84,5.84,0,0,0,0-.82v-3.3a3.34,3.34,0,0,0-.28-1.59,1,1,0,0,0-1-.5,2.9,2.9,0,0,0-2.08,1.14v4.25a2.87,2.87,0,0,0,.1,1,.8.8,0,0,0,.33.37,2.12,2.12,0,0,0,.88.12v.32h-4v-.32h.17a.93.93,0,0,0,.83-.31,2.22,2.22,0,0,0,.22-1.19v-3a11.75,11.75,0,0,0-.07-1.77.75.75,0,0,0-.2-.43.57.57,0,0,0-.36-.11,1.62,1.62,0,0,0-.59.13l-.13-.31-.06.3a.73.73,0,0,1-.17.26.71.71,0,0,1-.54.24,1.14,1.14,0,0,1-.69-.3,1.23,1.23,0,0,0-.57-.31.5.5,0,0,0-.34.18,4.11,4.11,0,0,0-.82,1.19v3.86a2.27,2.27,0,0,0,.17,1,.89.89,0,0,0,.4.39,1.7,1.7,0,0,0,.83.16v.32h-4.12v-.32a1.73,1.73,0,0,0,.92-.19.77.77,0,0,0,.3-.45,4.27,4.27,0,0,0,.05-.85v-3.12a12.45,12.45,0,0,0-.06-1.68.66.66,0,0,0-.21-.39.6.6,0,0,0-.38-.12,1.72,1.72,0,0,0-.62.13l-.09-.32Zm-6.7.61a1.8,1.8,0,0,0-1.3.57,2.45,2.45,0,0,0-.67,1.58h3.72a3.58,3.58,0,0,0-.18-1.09,1.8,1.8,0,0,0-.66-.78A1.7,1.7,0,0,0,801.74,164Zm23,0a1.8,1.8,0,0,0-1.3.57,2.45,2.45,0,0,0-.67,1.58h3.72a3.58,3.58,0,0,0-.18-1.09,1.8,1.8,0,0,0-.66-.78A1.7,1.7,0,0,0,824.78,164Z" transform="translate(-68.52 -53.4)"/><path class="cls-6" d="M778.26,159.74h5.11v.32h-.44a1.28,1.28,0,0,0-1.06.43,2.57,2.57,0,0,0-.22,1.36v7.7a3.73,3.73,0,0,0,.12,1.19.77.77,0,0,0,.36.38,1.65,1.65,0,0,0,.8.21h.44v.33h-5.11v-.33h.42a1.26,1.26,0,0,0,1.07-.43,2.69,2.69,0,0,0,.21-1.35v-7.7a3.9,3.9,0,0,0-.11-1.2.86.86,0,0,0-.36-.38,1.69,1.69,0,0,0-.81-.21h-.42ZM795.44,161h.27v2.65h1.88v.61h-1.88v5.22a1.78,1.78,0,0,0,.23,1.06.7.7,0,0,0,.57.27,1,1,0,0,0,.56-.18,1.2,1.2,0,0,0,.43-.53h.34a2.83,2.83,0,0,1-.87,1.29,1.89,1.89,0,0,1-1.16.44,1.54,1.54,0,0,1-.79-.23,1.32,1.32,0,0,1-.57-.64,3.18,3.18,0,0,1-.19-1.28v-5.42H793v-.29a3.57,3.57,0,0,0,1-.65,5.82,5.82,0,0,0,.9-1.1A10.55,10.55,0,0,0,795.44,161Zm36.12,0h.27v2.65h1.88v.61h-1.88v5.22a1.78,1.78,0,0,0,.23,1.06.7.7,0,0,0,.57.27,1,1,0,0,0,.56-.18,1.2,1.2,0,0,0,.43-.53H834a2.83,2.83,0,0,1-.87,1.29,1.89,1.89,0,0,1-1.16.44,1.54,1.54,0,0,1-.79-.23,1.32,1.32,0,0,1-.57-.64,3.18,3.18,0,0,1-.19-1.28v-5.42h-1.27v-.29a3.57,3.57,0,0,0,1-.65,5.82,5.82,0,0,0,.9-1.1A10.55,10.55,0,0,0,831.56,161Zm-29.32,2.4a3,3,0,0,1,2.22.89,3.28,3.28,0,0,1,.87,2.39h-5.56a4.1,4.1,0,0,0,.87,2.81,2.64,2.64,0,0,0,2.06,1,2.25,2.25,0,0,0,1.38-.44,3.24,3.24,0,0,0,1-1.48l.27.17a4.18,4.18,0,0,1-1.07,2.19,2.87,2.87,0,0,1-2.23,1,3.23,3.23,0,0,1-2.48-1.13,4.3,4.3,0,0,1-1-3,4.56,4.56,0,0,1,1.06-3.22A3.41,3.41,0,0,1,802.24,163.36Zm23,0a3,3,0,0,1,2.22.89,3.28,3.28,0,0,1,.87,2.39h-5.56a4.1,4.1,0,0,0,.87,2.81,2.64,2.64,0,0,0,2.06,1,2.25,2.25,0,0,0,1.38-.44,3.24,3.24,0,0,0,1-1.48l.27.17a4.18,4.18,0,0,1-1.07,2.19,2.87,2.87,0,0,1-2.23,1,3.23,3.23,0,0,1-2.48-1.13,4.3,4.3,0,0,1-1-3,4.56,4.56,0,0,1,1.06-3.22A3.41,3.41,0,0,1,825.28,163.36Zm-38.94,0h.38v1.7a3.8,3.8,0,0,1,2.7-1.7,1.91,1.91,0,0,1,1.13.33,2.21,2.21,0,0,1,.76,1.08,5,5,0,0,1,.19,1.62v3.44a2.91,2.91,0,0,0,.12,1,.73.73,0,0,0,.32.35,1.76,1.76,0,0,0,.79.12v.32h-4v-.32h.17a1.36,1.36,0,0,0,.78-.17.92.92,0,0,0,.32-.51,5.84,5.84,0,0,0,0-.82v-3.3a3.34,3.34,0,0,0-.28-1.59,1,1,0,0,0-1-.5,2.9,2.9,0,0,0-2.08,1.14v4.25a2.87,2.87,0,0,0,.1,1,.8.8,0,0,0,.33.37,2.12,2.12,0,0,0,.88.12v.32h-4v-.32h.17a.93.93,0,0,0,.83-.31,2.22,2.22,0,0,0,.22-1.19v-3a11.75,11.75,0,0,0-.07-1.77.75.75,0,0,0-.2-.43.57.57,0,0,0-.36-.11,1.62,1.62,0,0,0-.59.13l-.13-.32Zm22.1,0h.37v1.81c.67-1.21,1.36-1.81,2.07-1.81a1.14,1.14,0,0,1,.8.29.93.93,0,0,1,.32.68h0l2.42-1h.38v1.7a3.8,3.8,0,0,1,2.7-1.7,1.91,1.91,0,0,1,1.13.33,2.21,2.21,0,0,1,.76,1.08,5,5,0,0,1,.19,1.62v3.44a2.91,2.91,0,0,0,.12,1,.73.73,0,0,0,.32.35,1.76,1.76,0,0,0,.79.12v.32h-4v-.32H817a1.36,1.36,0,0,0,.78-.17.92.92,0,0,0,.32-.51,5.84,5.84,0,0,0,0-.82v-3.3a3.34,3.34,0,0,0-.28-1.59,1,1,0,0,0-1-.5,2.9,2.9,0,0,0-2.08,1.14v4.25a2.87,2.87,0,0,0,.1,1,.8.8,0,0,0,.33.37,2.12,2.12,0,0,0,.88.12v.32h-4v-.32h.17a.93.93,0,0,0,.83-.31,2.22,2.22,0,0,0,.22-1.19v-3a11.75,11.75,0,0,0-.07-1.77.75.75,0,0,0-.2-.43.57.57,0,0,0-.36-.11,1.62,1.62,0,0,0-.59.13l-.13-.31-.06.3a.73.73,0,0,1-.17.26.71.71,0,0,1-.54.24,1.14,1.14,0,0,1-.69-.3,1.23,1.23,0,0,0-.57-.31.5.5,0,0,0-.34.18,4.11,4.11,0,0,0-.82,1.19v3.86a2.27,2.27,0,0,0,.17,1,.89.89,0,0,0,.4.39,1.7,1.7,0,0,0,.83.16v.32h-4.12v-.32a1.73,1.73,0,0,0,.92-.19.77.77,0,0,0,.3-.45,4.27,4.27,0,0,0,.05-.85v-3.12a12.45,12.45,0,0,0-.06-1.68.66.66,0,0,0-.21-.39.6.6,0,0,0-.38-.12,1.72,1.72,0,0,0-.62.13l-.09-.32Zm-6.7.61a1.8,1.8,0,0,0-1.3.57,2.45,2.45,0,0,0-.67,1.58h3.72a3.58,3.58,0,0,0-.18-1.09,1.8,1.8,0,0,0-.66-.78A1.7,1.7,0,0,0,801.74,164Zm23,0a1.8,1.8,0,0,0-1.3.57,2.45,2.45,0,0,0-.67,1.58h3.72a3.58,3.58,0,0,0-.18-1.09,1.8,1.8,0,0,0-.66-.78A1.7,1.7,0,0,0,824.78,164Z" transform="translate(-68.52 -53.4)"/><ellipse class="cls-7" cx="61.32" cy="144.18" rx="59.82" ry="39"/><path class="cls-5" d="M134.06,180.8a.89.89,0,1,1-.64.26A.9.9,0,0,1,134.06,180.8Zm-27.36.59h9.73l.13,2.79h-.33a3.23,3.23,0,0,0-.27-1.05,1.74,1.74,0,0,0-.72-.75,2.42,2.42,0,0,0-1.19-.25h-1.68v9.11a2.41,2.41,0,0,0,.24,1.37,1.3,1.3,0,0,0,1,.37h.41v.32h-5V193h.42a1.2,1.2,0,0,0,1.07-.46,2.65,2.65,0,0,0,.19-1.28v-9.11h-1.43a3.73,3.73,0,0,0-1.19.13,1.63,1.63,0,0,0-.78.64,2.62,2.62,0,0,0-.39,1.28h-.33ZM119,185h.37v1.81c.68-1.21,1.37-1.81,2.08-1.81a1.11,1.11,0,0,1,.8.29.9.9,0,0,1,.31.68.81.81,0,0,1-.22.58.75.75,0,0,1-.55.24,1.19,1.19,0,0,1-.69-.3,1.07,1.07,0,0,0-.57-.31.52.52,0,0,0-.34.18,4.16,4.16,0,0,0-.82,1.19v3.85a2.36,2.36,0,0,0,.17,1,1,1,0,0,0,.4.4,1.77,1.77,0,0,0,.84.16v.31h-4.12V193a1.68,1.68,0,0,0,.91-.2.73.73,0,0,0,.31-.44,4.71,4.71,0,0,0,0-.86v-3.12a15.75,15.75,0,0,0,0-1.67.66.66,0,0,0-.21-.39.62.62,0,0,0-.39-.12,1.67,1.67,0,0,0-.61.13l-.09-.32Zm8,0a3.56,3.56,0,0,1,2.93,1.39,4.22,4.22,0,0,1,.94,2.72,5.09,5.09,0,0,1-.52,2.19,3.75,3.75,0,0,1-1.43,1.67,3.79,3.79,0,0,1-2,.56A3.4,3.4,0,0,1,124,192.1a4.45,4.45,0,0,1-.91-2.74,4.94,4.94,0,0,1,.55-2.2,3.78,3.78,0,0,1,1.45-1.62A3.67,3.67,0,0,1,127,185Zm7.48,0h.37v8.1a4.54,4.54,0,0,1-.88,3.07,2.87,2.87,0,0,1-2.28,1,2,2,0,0,1-1.19-.29.71.71,0,0,1-.17-1.13.7.7,0,0,1,.51-.22,1,1,0,0,1,.46.12,3.1,3.1,0,0,1,.58.44,1.18,1.18,0,0,0,.71.39.69.69,0,0,0,.42-.17,1.07,1.07,0,0,0,.3-.54,9.35,9.35,0,0,0,.09-1.66V188.4a10,10,0,0,0-.08-1.7.65.65,0,0,0-.19-.4.52.52,0,0,0-.36-.11,1.76,1.76,0,0,0-.6.13L132,186Zm5.95,0a3.8,3.8,0,0,1,1.76.36,1.63,1.63,0,0,1,.76.85,4.67,4.67,0,0,1,.16,1.55v2.73a12.69,12.69,0,0,0,0,1.41.6.6,0,0,0,.15.35.33.33,0,0,0,.23.09.49.49,0,0,0,.25-.07,5.21,5.21,0,0,0,.71-.64v.49c-.66.88-1.28,1.32-1.88,1.32a.86.86,0,0,1-.69-.3,1.65,1.65,0,0,1-.26-1,13.63,13.63,0,0,1-1.56,1.11,2.29,2.29,0,0,1-1,.22,1.81,1.81,0,0,1-1.37-.57,2.09,2.09,0,0,1-.54-1.5,1.93,1.93,0,0,1,.26-1,3.5,3.5,0,0,1,1.25-1.13,19.77,19.77,0,0,1,3-1.28v-.32a2.66,2.66,0,0,0-.38-1.65,1.39,1.39,0,0,0-1.11-.45,1.24,1.24,0,0,0-.88.3.89.89,0,0,0-.34.69l0,.51a.86.86,0,0,1-.21.62.67.67,0,0,1-.54.22.7.7,0,0,1-.53-.23.88.88,0,0,1-.21-.62,1.78,1.78,0,0,1,.78-1.39A3.34,3.34,0,0,1,140.39,185Zm6.68,0h.37v1.7a3.8,3.8,0,0,1,2.7-1.7,2,2,0,0,1,1.14.33,2.2,2.2,0,0,1,.75,1.08,5,5,0,0,1,.2,1.62v3.44a2.91,2.91,0,0,0,.12,1,.75.75,0,0,0,.31.35,1.81,1.81,0,0,0,.8.12v.31h-4V193h.16a1.38,1.38,0,0,0,.79-.17.94.94,0,0,0,.31-.51,5.25,5.25,0,0,0,0-.82v-3.3a3.4,3.4,0,0,0-.29-1.6,1,1,0,0,0-1-.49,2.92,2.92,0,0,0-2.09,1.14v4.25a3.15,3.15,0,0,0,.1,1,.82.82,0,0,0,.34.37,2,2,0,0,0,.87.12v.31h-4V193H145a1,1,0,0,0,.83-.31,2.34,2.34,0,0,0,.21-1.19v-3a14.28,14.28,0,0,0-.06-1.77.82.82,0,0,0-.2-.43.54.54,0,0,0-.37-.11,1.66,1.66,0,0,0-.59.13l-.13-.32Zm-20.39.57a1.84,1.84,0,0,0-.93.27,1.91,1.91,0,0,0-.76,1,4.51,4.51,0,0,0-.29,1.78,6.17,6.17,0,0,0,.7,3,2.08,2.08,0,0,0,1.84,1.28,1.71,1.71,0,0,0,1.4-.71,4,4,0,0,0,.56-2.41,5.49,5.49,0,0,0-.93-3.38A1.89,1.89,0,0,0,126.68,185.59Zm14.94,2.92a17.47,17.47,0,0,0-1.71.74,3,3,0,0,0-1,.81,1.56,1.56,0,0,0-.3.92A1.49,1.49,0,0,0,139,192a1.14,1.14,0,0,0,.87.42,3.16,3.16,0,0,0,1.76-.88Z" transform="translate(-68.52 -53.4)"/><path class="cls-6" d="M134.06,180.8a.89.89,0,1,1-.64.26A.9.9,0,0,1,134.06,180.8Zm-27.36.59h9.73l.13,2.79h-.33a3.23,3.23,0,0,0-.27-1.05,1.74,1.74,0,0,0-.72-.75,2.42,2.42,0,0,0-1.19-.25h-1.68v9.11a2.41,2.41,0,0,0,.24,1.37,1.3,1.3,0,0,0,1,.37h.41v.32h-5V193h.42a1.2,1.2,0,0,0,1.07-.46,2.65,2.65,0,0,0,.19-1.28v-9.11h-1.43a3.73,3.73,0,0,0-1.19.13,1.63,1.63,0,0,0-.78.64,2.62,2.62,0,0,0-.39,1.28h-.33ZM119,185h.37v1.81c.68-1.21,1.37-1.81,2.08-1.81a1.11,1.11,0,0,1,.8.29.9.9,0,0,1,.31.68.81.81,0,0,1-.22.58.75.75,0,0,1-.55.24,1.19,1.19,0,0,1-.69-.3,1.07,1.07,0,0,0-.57-.31.52.52,0,0,0-.34.18,4.16,4.16,0,0,0-.82,1.19v3.85a2.36,2.36,0,0,0,.17,1,1,1,0,0,0,.4.4,1.77,1.77,0,0,0,.84.16v.31h-4.12V193a1.68,1.68,0,0,0,.91-.2.73.73,0,0,0,.31-.44,4.71,4.71,0,0,0,0-.86v-3.12a15.75,15.75,0,0,0,0-1.67.66.66,0,0,0-.21-.39.62.62,0,0,0-.39-.12,1.67,1.67,0,0,0-.61.13l-.09-.32Zm8,0a3.56,3.56,0,0,1,2.93,1.39,4.22,4.22,0,0,1,.94,2.72,5.09,5.09,0,0,1-.52,2.19,3.75,3.75,0,0,1-1.43,1.67,3.79,3.79,0,0,1-2,.56A3.4,3.4,0,0,1,124,192.1a4.45,4.45,0,0,1-.91-2.74,4.94,4.94,0,0,1,.55-2.2,3.78,3.78,0,0,1,1.45-1.62A3.67,3.67,0,0,1,127,185Zm7.48,0h.37v8.1a4.54,4.54,0,0,1-.88,3.07,2.87,2.87,0,0,1-2.28,1,2,2,0,0,1-1.19-.29.71.71,0,0,1-.17-1.13.7.7,0,0,1,.51-.22,1,1,0,0,1,.46.12,3.1,3.1,0,0,1,.58.44,1.18,1.18,0,0,0,.71.39.69.69,0,0,0,.42-.17,1.07,1.07,0,0,0,.3-.54,9.35,9.35,0,0,0,.09-1.66V188.4a10,10,0,0,0-.08-1.7.65.65,0,0,0-.19-.4.52.52,0,0,0-.36-.11,1.76,1.76,0,0,0-.6.13L132,186Zm5.95,0a3.8,3.8,0,0,1,1.76.36,1.63,1.63,0,0,1,.76.85,4.67,4.67,0,0,1,.16,1.55v2.73a12.69,12.69,0,0,0,0,1.41.6.6,0,0,0,.15.35.33.33,0,0,0,.23.09.49.49,0,0,0,.25-.07,5.21,5.21,0,0,0,.71-.64v.49c-.66.88-1.28,1.32-1.88,1.32a.86.86,0,0,1-.69-.3,1.65,1.65,0,0,1-.26-1,13.63,13.63,0,0,1-1.56,1.11,2.29,2.29,0,0,1-1,.22,1.81,1.81,0,0,1-1.37-.57,2.09,2.09,0,0,1-.54-1.5,1.93,1.93,0,0,1,.26-1,3.5,3.5,0,0,1,1.25-1.13,19.77,19.77,0,0,1,3-1.28v-.32a2.66,2.66,0,0,0-.38-1.65,1.39,1.39,0,0,0-1.11-.45,1.24,1.24,0,0,0-.88.3.89.89,0,0,0-.34.69l0,.51a.86.86,0,0,1-.21.62.67.67,0,0,1-.54.22.7.7,0,0,1-.53-.23.88.88,0,0,1-.21-.62,1.78,1.78,0,0,1,.78-1.39A3.34,3.34,0,0,1,140.39,185Zm6.68,0h.37v1.7a3.8,3.8,0,0,1,2.7-1.7,2,2,0,0,1,1.14.33,2.2,2.2,0,0,1,.75,1.08,5,5,0,0,1,.2,1.62v3.44a2.91,2.91,0,0,0,.12,1,.75.75,0,0,0,.31.35,1.81,1.81,0,0,0,.8.12v.31h-4V193h.16a1.38,1.38,0,0,0,.79-.17.94.94,0,0,0,.31-.51,5.25,5.25,0,0,0,0-.82v-3.3a3.4,3.4,0,0,0-.29-1.6,1,1,0,0,0-1-.49,2.92,2.92,0,0,0-2.09,1.14v4.25a3.15,3.15,0,0,0,.1,1,.82.82,0,0,0,.34.37,2,2,0,0,0,.87.12v.31h-4V193H145a1,1,0,0,0,.83-.31,2.34,2.34,0,0,0,.21-1.19v-3a14.28,14.28,0,0,0-.06-1.77.82.82,0,0,0-.2-.43.54.54,0,0,0-.37-.11,1.66,1.66,0,0,0-.59.13l-.13-.32Zm-20.39.57a1.84,1.84,0,0,0-.93.27,1.91,1.91,0,0,0-.76,1,4.51,4.51,0,0,0-.29,1.78,6.17,6.17,0,0,0,.7,3,2.08,2.08,0,0,0,1.84,1.28,1.71,1.71,0,0,0,1.4-.71,4,4,0,0,0,.56-2.41,5.49,5.49,0,0,0-.93-3.38A1.89,1.89,0,0,0,126.68,185.59Zm14.94,2.92a17.47,17.47,0,0,0-1.71.74,3,3,0,0,0-1,.81,1.56,1.56,0,0,0-.3.92A1.49,1.49,0,0,0,139,192a1.14,1.14,0,0,0,.87.42,3.16,3.16,0,0,0,1.76-.88Z" transform="translate(-68.52 -53.4)"/><path class="cls-5" d="M122.63,202.41h.4v10.68a2.78,2.78,0,0,0,.11,1,.75.75,0,0,0,.33.37,1.91,1.91,0,0,0,.86.13v.31h-4v-.31a1.67,1.67,0,0,0,.76-.12.72.72,0,0,0,.31-.37,2.85,2.85,0,0,0,.12-1v-7.32a12.91,12.91,0,0,0-.06-1.67.75.75,0,0,0-.2-.43.56.56,0,0,0-.35-.11,1.54,1.54,0,0,0-.58.14l-.15-.31Zm4.72,0a.89.89,0,0,1,.88.88.89.89,0,0,1-.88.9.89.89,0,0,1-.9-.9.85.85,0,0,1,.26-.62A.83.83,0,0,1,127.35,202.41Zm-12.94.3a5.66,5.66,0,0,1,2.55.64,1.35,1.35,0,0,0,.53.19.6.6,0,0,0,.41-.17,1.28,1.28,0,0,0,.32-.66h.31l.27,4.06h-.27a5.06,5.06,0,0,0-1.55-2.62,3.78,3.78,0,0,0-2.43-.8,4,4,0,0,0-2.14.6,4,4,0,0,0-1.51,1.92,8.48,8.48,0,0,0-.55,3.28,6.86,6.86,0,0,0,.52,2.8,3.82,3.82,0,0,0,1.56,1.82,4.5,4.5,0,0,0,2.38.63,4.11,4.11,0,0,0,2-.49,6.51,6.51,0,0,0,2-2l.28.18a6.32,6.32,0,0,1-2.09,2.33,5.86,5.86,0,0,1-7.43-1.46,6.27,6.27,0,0,1-1.21-3.85,6.78,6.78,0,0,1,.8-3.28,5.7,5.7,0,0,1,2.2-2.31A5.91,5.91,0,0,1,114.41,202.71Zm35,1.5h.28v2.64h1.88v.62h-1.88v5.22a1.74,1.74,0,0,0,.22,1.05.7.7,0,0,0,.58.28,1,1,0,0,0,.56-.18,1.16,1.16,0,0,0,.42-.54h.34a2.67,2.67,0,0,1-.87,1.3,1.87,1.87,0,0,1-1.16.44,1.56,1.56,0,0,1-.79-.23,1.32,1.32,0,0,1-.57-.64,3.47,3.47,0,0,1-.18-1.29v-5.41H147v-.29a3.41,3.41,0,0,0,1-.66,4.85,4.85,0,0,0,.9-1.09A9.05,9.05,0,0,0,149.44,204.21Zm-15.28,2.4a3,3,0,0,1,2.22.89,3.23,3.23,0,0,1,.88,2.39h-5.57a4.2,4.2,0,0,0,.87,2.81,2.67,2.67,0,0,0,2.07,1,2.24,2.24,0,0,0,1.37-.44,3.15,3.15,0,0,0,1-1.49l.28.18a4.28,4.28,0,0,1-1.08,2.19,2.85,2.85,0,0,1-2.22,1,3.23,3.23,0,0,1-2.48-1.13,4.31,4.31,0,0,1-1-3,4.63,4.63,0,0,1,1.06-3.22A3.45,3.45,0,0,1,134.16,206.61Zm-6.47,0h.39v6.47a2.78,2.78,0,0,0,.11,1,.8.8,0,0,0,.32.38,1.79,1.79,0,0,0,.79.12v.31h-3.91v-.31a1.76,1.76,0,0,0,.79-.12.79.79,0,0,0,.32-.37,2.85,2.85,0,0,0,.12-1V210a11.16,11.16,0,0,0-.08-1.69.65.65,0,0,0-.2-.39.49.49,0,0,0-.36-.11,1.66,1.66,0,0,0-.59.13l-.13-.32Zm12.66,0h.37v1.7a3.8,3.8,0,0,1,2.7-1.7,2,2,0,0,1,1.14.33,2.2,2.2,0,0,1,.75,1.08,5,5,0,0,1,.2,1.62v3.44a2.91,2.91,0,0,0,.12,1,.75.75,0,0,0,.31.35,1.81,1.81,0,0,0,.8.12v.31h-4v-.31h.16a1.38,1.38,0,0,0,.79-.17.94.94,0,0,0,.31-.51,5.25,5.25,0,0,0,0-.82v-3.3a3.4,3.4,0,0,0-.29-1.6,1,1,0,0,0-1-.49,2.92,2.92,0,0,0-2.09,1.14v4.25a3.15,3.15,0,0,0,.1,1,.82.82,0,0,0,.34.37,2,2,0,0,0,.87.12v.31h-4v-.31h.18a1,1,0,0,0,.83-.31,2.34,2.34,0,0,0,.21-1.19v-3a14.28,14.28,0,0,0-.06-1.77.82.82,0,0,0-.2-.43.54.54,0,0,0-.37-.11,1.66,1.66,0,0,0-.59.13l-.13-.32Zm-6.68.61a1.82,1.82,0,0,0-1.31.57,2.5,2.5,0,0,0-.67,1.58h3.73a3.23,3.23,0,0,0-.19-1.09,1.73,1.73,0,0,0-1.56-1.06Z" transform="translate(-68.52 -53.4)"/><path class="cls-6" d="M122.63,202.41h.4v10.68a2.78,2.78,0,0,0,.11,1,.75.75,0,0,0,.33.37,1.91,1.91,0,0,0,.86.13v.31h-4v-.31a1.67,1.67,0,0,0,.76-.12.72.72,0,0,0,.31-.37,2.85,2.85,0,0,0,.12-1v-7.32a12.91,12.91,0,0,0-.06-1.67.75.75,0,0,0-.2-.43.56.56,0,0,0-.35-.11,1.54,1.54,0,0,0-.58.14l-.15-.31Zm4.72,0a.89.89,0,0,1,.88.88.89.89,0,0,1-.88.9.89.89,0,0,1-.9-.9.85.85,0,0,1,.26-.62A.83.83,0,0,1,127.35,202.41Zm-12.94.3a5.66,5.66,0,0,1,2.55.64,1.35,1.35,0,0,0,.53.19.6.6,0,0,0,.41-.17,1.28,1.28,0,0,0,.32-.66h.31l.27,4.06h-.27a5.06,5.06,0,0,0-1.55-2.62,3.78,3.78,0,0,0-2.43-.8,4,4,0,0,0-2.14.6,4,4,0,0,0-1.51,1.92,8.48,8.48,0,0,0-.55,3.28,6.86,6.86,0,0,0,.52,2.8,3.82,3.82,0,0,0,1.56,1.82,4.5,4.5,0,0,0,2.38.63,4.11,4.11,0,0,0,2-.49,6.51,6.51,0,0,0,2-2l.28.18a6.32,6.32,0,0,1-2.09,2.33,5.86,5.86,0,0,1-7.43-1.46,6.27,6.27,0,0,1-1.21-3.85,6.78,6.78,0,0,1,.8-3.28,5.7,5.7,0,0,1,2.2-2.31A5.91,5.91,0,0,1,114.41,202.71Zm35,1.5h.28v2.64h1.88v.62h-1.88v5.22a1.74,1.74,0,0,0,.22,1.05.7.7,0,0,0,.58.28,1,1,0,0,0,.56-.18,1.16,1.16,0,0,0,.42-.54h.34a2.67,2.67,0,0,1-.87,1.3,1.87,1.87,0,0,1-1.16.44,1.56,1.56,0,0,1-.79-.23,1.32,1.32,0,0,1-.57-.64,3.47,3.47,0,0,1-.18-1.29v-5.41H147v-.29a3.41,3.41,0,0,0,1-.66,4.85,4.85,0,0,0,.9-1.09A9.05,9.05,0,0,0,149.44,204.21Zm-15.28,2.4a3,3,0,0,1,2.22.89,3.23,3.23,0,0,1,.88,2.39h-5.57a4.2,4.2,0,0,0,.87,2.81,2.67,2.67,0,0,0,2.07,1,2.24,2.24,0,0,0,1.37-.44,3.15,3.15,0,0,0,1-1.49l.28.18a4.28,4.28,0,0,1-1.08,2.19,2.85,2.85,0,0,1-2.22,1,3.23,3.23,0,0,1-2.48-1.13,4.31,4.31,0,0,1-1-3,4.63,4.63,0,0,1,1.06-3.22A3.45,3.45,0,0,1,134.16,206.61Zm-6.47,0h.39v6.47a2.78,2.78,0,0,0,.11,1,.8.8,0,0,0,.32.38,1.79,1.79,0,0,0,.79.12v.31h-3.91v-.31a1.76,1.76,0,0,0,.79-.12.79.79,0,0,0,.32-.37,2.85,2.85,0,0,0,.12-1V210a11.16,11.16,0,0,0-.08-1.69.65.65,0,0,0-.2-.39.49.49,0,0,0-.36-.11,1.66,1.66,0,0,0-.59.13l-.13-.32Zm12.66,0h.37v1.7a3.8,3.8,0,0,1,2.7-1.7,2,2,0,0,1,1.14.33,2.2,2.2,0,0,1,.75,1.08,5,5,0,0,1,.2,1.62v3.44a2.91,2.91,0,0,0,.12,1,.75.75,0,0,0,.31.35,1.81,1.81,0,0,0,.8.12v.31h-4v-.31h.16a1.38,1.38,0,0,0,.79-.17.94.94,0,0,0,.31-.51,5.25,5.25,0,0,0,0-.82v-3.3a3.4,3.4,0,0,0-.29-1.6,1,1,0,0,0-1-.49,2.92,2.92,0,0,0-2.09,1.14v4.25a3.15,3.15,0,0,0,.1,1,.82.82,0,0,0,.34.37,2,2,0,0,0,.87.12v.31h-4v-.31h.18a1,1,0,0,0,.83-.31,2.34,2.34,0,0,0,.21-1.19v-3a14.28,14.28,0,0,0-.06-1.77.82.82,0,0,0-.2-.43.54.54,0,0,0-.37-.11,1.66,1.66,0,0,0-.59.13l-.13-.32Zm-6.68.61a1.82,1.82,0,0,0-1.31.57,2.5,2.5,0,0,0-.67,1.58h3.73a3.23,3.23,0,0,0-.19-1.09,1.73,1.73,0,0,0-1.56-1.06Z" transform="translate(-68.52 -53.4)"/><ellipse class="cls-7" cx="61.32" cy="311.94" rx="59.82" ry="39"/><path class="cls-5" d="M126.3,359.39h.4v5.89a6.86,6.86,0,0,1,1.55-1.38,2.43,2.43,0,0,1,1.14-.3,1.89,1.89,0,0,1,1.18.37,2.27,2.27,0,0,1,.73,1.19,8.47,8.47,0,0,1,.17,2.06v2.85a3.05,3.05,0,0,0,.12,1,.68.68,0,0,0,.3.33,1.56,1.56,0,0,0,.77.13v.31h-3.95v-.31h.18a1.38,1.38,0,0,0,.79-.17,1,1,0,0,0,.3-.51,6,6,0,0,0,0-.82v-2.85a6.77,6.77,0,0,0-.14-1.73,1.11,1.11,0,0,0-.43-.62,1.22,1.22,0,0,0-.72-.21,2.07,2.07,0,0,0-.9.23,4.38,4.38,0,0,0-1.12.92v4.26a3.18,3.18,0,0,0,.1,1,.7.7,0,0,0,.34.34,2,2,0,0,0,.87.14v.31h-4v-.31a1.81,1.81,0,0,0,.84-.17.62.62,0,0,0,.28-.33,3,3,0,0,0,.11-1v-7.29a12.61,12.61,0,0,0-.07-1.7.75.75,0,0,0-.2-.43.58.58,0,0,0-.37-.11,1.88,1.88,0,0,0-.59.14l-.13-.31Zm-13.94.3a5.38,5.38,0,0,1,4,1.77,6,6,0,0,1,1.7,4.4,6.24,6.24,0,0,1-1.71,4.5,5.72,5.72,0,0,1-8.28.05,6.28,6.28,0,0,1-1.68-4.53,6.05,6.05,0,0,1,1.93-4.63A5.7,5.7,0,0,1,112.36,359.69Zm-.17.65a3.13,3.13,0,0,0-2.56,1.18,6.75,6.75,0,0,0-1.21,4.33,7.1,7.1,0,0,0,1.25,4.49,3.1,3.1,0,0,0,2.53,1.19,3.45,3.45,0,0,0,2.78-1.31,6.38,6.38,0,0,0,1.09-4.13,7.22,7.22,0,0,0-1.2-4.56A3.25,3.25,0,0,0,112.19,360.34Zm9.18.85h.27v2.64h1.88v.62h-1.88v5.22a1.74,1.74,0,0,0,.22,1.05.7.7,0,0,0,.58.28,1,1,0,0,0,.56-.18,1.16,1.16,0,0,0,.42-.54h.35a2.81,2.81,0,0,1-.87,1.3,1.91,1.91,0,0,1-1.16.44,1.6,1.6,0,0,1-.8-.23,1.42,1.42,0,0,1-.57-.64,3.47,3.47,0,0,1-.18-1.29v-5.41h-1.28v-.29a3.17,3.17,0,0,0,1-.66,4.85,4.85,0,0,0,.9-1.09A8.76,8.76,0,0,0,121.37,361.19Zm15.79,2.4a3,3,0,0,1,2.23.89,3.27,3.27,0,0,1,.87,2.39h-5.57a4.2,4.2,0,0,0,.87,2.81,2.67,2.67,0,0,0,2.07,1,2.25,2.25,0,0,0,1.38-.44,3.3,3.3,0,0,0,1-1.49l.27.18a4.26,4.26,0,0,1-1.07,2.19,2.89,2.89,0,0,1-2.23,1,3.25,3.25,0,0,1-2.48-1.13,4.31,4.31,0,0,1-1-3,4.58,4.58,0,0,1,1.06-3.22A3.43,3.43,0,0,1,137.16,363.59Zm6.21,0h.37v1.81c.67-1.21,1.36-1.81,2.07-1.81a1.11,1.11,0,0,1,.8.29.91.91,0,0,1,.32.68.82.82,0,0,1-.23.58.74.74,0,0,1-.55.24,1.19,1.19,0,0,1-.69-.3,1.08,1.08,0,0,0-.56-.31.54.54,0,0,0-.35.18,4.17,4.17,0,0,0-.81,1.19V370a2.38,2.38,0,0,0,.16,1,.93.93,0,0,0,.41.4,1.7,1.7,0,0,0,.83.16v.31H141v-.31a1.66,1.66,0,0,0,.91-.2.73.73,0,0,0,.31-.44,4.33,4.33,0,0,0,0-.86V367a12.36,12.36,0,0,0-.06-1.67.66.66,0,0,0-.21-.39.6.6,0,0,0-.38-.12,1.68,1.68,0,0,0-.62.13l-.09-.32Zm6.77,0a3.91,3.91,0,0,1,1.15.2,2.58,2.58,0,0,0,.6.13.36.36,0,0,0,.22-.06.87.87,0,0,0,.18-.27h.29v2.74h-.29a3.54,3.54,0,0,0-.85-1.76,2,2,0,0,0-1.33-.47,1.47,1.47,0,0,0-1,.33,1,1,0,0,0-.38.72,1.28,1.28,0,0,0,.29.84,3.14,3.14,0,0,0,1.1.77l1.29.62a2.61,2.61,0,0,1,1.78,2.3,2.18,2.18,0,0,1-.83,1.77,2.86,2.86,0,0,1-1.86.67,6.7,6.7,0,0,1-1.69-.26,1.65,1.65,0,0,0-.47-.09.36.36,0,0,0-.32.23h-.29v-2.88H148A3.36,3.36,0,0,0,149,371a2.31,2.31,0,0,0,1.56.62,1.44,1.44,0,0,0,1-.35,1.16,1.16,0,0,0,.38-.86,1.33,1.33,0,0,0-.43-1,7.43,7.43,0,0,0-1.7-1.05,5.08,5.08,0,0,1-1.67-1.14,2,2,0,0,1-.39-1.26,2.22,2.22,0,0,1,.68-1.67A2.42,2.42,0,0,1,150.14,363.6Zm-13.47.61a1.8,1.8,0,0,0-1.3.57,2.46,2.46,0,0,0-.68,1.58h3.73a3.58,3.58,0,0,0-.18-1.09,1.8,1.8,0,0,0-.66-.78A1.7,1.7,0,0,0,136.67,364.21Z" transform="translate(-68.52 -53.4)"/><path class="cls-6" d="M126.3,359.39h.4v5.89a6.86,6.86,0,0,1,1.55-1.38,2.43,2.43,0,0,1,1.14-.3,1.89,1.89,0,0,1,1.18.37,2.27,2.27,0,0,1,.73,1.19,8.47,8.47,0,0,1,.17,2.06v2.85a3.05,3.05,0,0,0,.12,1,.68.68,0,0,0,.3.33,1.56,1.56,0,0,0,.77.13v.31h-3.95v-.31h.18a1.38,1.38,0,0,0,.79-.17,1,1,0,0,0,.3-.51,6,6,0,0,0,0-.82v-2.85a6.77,6.77,0,0,0-.14-1.73,1.11,1.11,0,0,0-.43-.62,1.22,1.22,0,0,0-.72-.21,2.07,2.07,0,0,0-.9.23,4.38,4.38,0,0,0-1.12.92v4.26a3.18,3.18,0,0,0,.1,1,.7.7,0,0,0,.34.34,2,2,0,0,0,.87.14v.31h-4v-.31a1.81,1.81,0,0,0,.84-.17.62.62,0,0,0,.28-.33,3,3,0,0,0,.11-1v-7.29a12.61,12.61,0,0,0-.07-1.7.75.75,0,0,0-.2-.43.58.58,0,0,0-.37-.11,1.88,1.88,0,0,0-.59.14l-.13-.31Zm-13.94.3a5.38,5.38,0,0,1,4,1.77,6,6,0,0,1,1.7,4.4,6.24,6.24,0,0,1-1.71,4.5,5.72,5.72,0,0,1-8.28.05,6.28,6.28,0,0,1-1.68-4.53,6.05,6.05,0,0,1,1.93-4.63A5.7,5.7,0,0,1,112.36,359.69Zm-.17.65a3.13,3.13,0,0,0-2.56,1.18,6.75,6.75,0,0,0-1.21,4.33,7.1,7.1,0,0,0,1.25,4.49,3.1,3.1,0,0,0,2.53,1.19,3.45,3.45,0,0,0,2.78-1.31,6.38,6.38,0,0,0,1.09-4.13,7.22,7.22,0,0,0-1.2-4.56A3.25,3.25,0,0,0,112.19,360.34Zm9.18.85h.27v2.64h1.88v.62h-1.88v5.22a1.74,1.74,0,0,0,.22,1.05.7.7,0,0,0,.58.28,1,1,0,0,0,.56-.18,1.16,1.16,0,0,0,.42-.54h.35a2.81,2.81,0,0,1-.87,1.3,1.91,1.91,0,0,1-1.16.44,1.6,1.6,0,0,1-.8-.23,1.42,1.42,0,0,1-.57-.64,3.47,3.47,0,0,1-.18-1.29v-5.41h-1.28v-.29a3.17,3.17,0,0,0,1-.66,4.85,4.85,0,0,0,.9-1.09A8.76,8.76,0,0,0,121.37,361.19Zm15.79,2.4a3,3,0,0,1,2.23.89,3.27,3.27,0,0,1,.87,2.39h-5.57a4.2,4.2,0,0,0,.87,2.81,2.67,2.67,0,0,0,2.07,1,2.25,2.25,0,0,0,1.38-.44,3.3,3.3,0,0,0,1-1.49l.27.18a4.26,4.26,0,0,1-1.07,2.19,2.89,2.89,0,0,1-2.23,1,3.25,3.25,0,0,1-2.48-1.13,4.31,4.31,0,0,1-1-3,4.58,4.58,0,0,1,1.06-3.22A3.43,3.43,0,0,1,137.16,363.59Zm6.21,0h.37v1.81c.67-1.21,1.36-1.81,2.07-1.81a1.11,1.11,0,0,1,.8.29.91.91,0,0,1,.32.68.82.82,0,0,1-.23.58.74.74,0,0,1-.55.24,1.19,1.19,0,0,1-.69-.3,1.08,1.08,0,0,0-.56-.31.54.54,0,0,0-.35.18,4.17,4.17,0,0,0-.81,1.19V370a2.38,2.38,0,0,0,.16,1,.93.93,0,0,0,.41.4,1.7,1.7,0,0,0,.83.16v.31H141v-.31a1.66,1.66,0,0,0,.91-.2.73.73,0,0,0,.31-.44,4.33,4.33,0,0,0,0-.86V367a12.36,12.36,0,0,0-.06-1.67.66.66,0,0,0-.21-.39.6.6,0,0,0-.38-.12,1.68,1.68,0,0,0-.62.13l-.09-.32Zm6.77,0a3.91,3.91,0,0,1,1.15.2,2.58,2.58,0,0,0,.6.13.36.36,0,0,0,.22-.06.87.87,0,0,0,.18-.27h.29v2.74h-.29a3.54,3.54,0,0,0-.85-1.76,2,2,0,0,0-1.33-.47,1.47,1.47,0,0,0-1,.33,1,1,0,0,0-.38.72,1.28,1.28,0,0,0,.29.84,3.14,3.14,0,0,0,1.1.77l1.29.62a2.61,2.61,0,0,1,1.78,2.3,2.18,2.18,0,0,1-.83,1.77,2.86,2.86,0,0,1-1.86.67,6.7,6.7,0,0,1-1.69-.26,1.65,1.65,0,0,0-.47-.09.36.36,0,0,0-.32.23h-.29v-2.88H148A3.36,3.36,0,0,0,149,371a2.31,2.31,0,0,0,1.56.62,1.44,1.44,0,0,0,1-.35,1.16,1.16,0,0,0,.38-.86,1.33,1.33,0,0,0-.43-1,7.43,7.43,0,0,0-1.7-1.05,5.08,5.08,0,0,1-1.67-1.14,2,2,0,0,1-.39-1.26,2.22,2.22,0,0,1,.68-1.67A2.42,2.42,0,0,1,150.14,363.6Zm-13.47.61a1.8,1.8,0,0,0-1.3.57,2.46,2.46,0,0,0-.68,1.58h3.73a3.58,3.58,0,0,0-.18-1.09,1.8,1.8,0,0,0-.66-.78A1.7,1.7,0,0,0,136.67,364.21Z" transform="translate(-68.52 -53.4)"/><ellipse class="cls-7" cx="499.26" cy="112.62" rx="59.76" ry="39"/><path class="cls-5" d="M572,149.26a.84.84,0,0,1,.64.26.87.87,0,0,1,.27.64.83.83,0,0,1-.27.63.85.85,0,0,1-.64.27.86.86,0,0,1-.63-.27.82.82,0,0,1-.26-.63.89.89,0,0,1,.89-.9Zm-27.35.59h9.73l.13,2.79h-.34a3.28,3.28,0,0,0-.26-1,1.79,1.79,0,0,0-.73-.76,2.51,2.51,0,0,0-1.19-.24h-1.67v9.11a2.44,2.44,0,0,0,.23,1.37,1.36,1.36,0,0,0,1,.37H552v.32h-5v-.32h.42a1.19,1.19,0,0,0,1.07-.46,2.61,2.61,0,0,0,.2-1.28v-9.11h-1.44a3.66,3.66,0,0,0-1.18.13,1.54,1.54,0,0,0-.78.64,2.52,2.52,0,0,0-.39,1.28h-.33Zm12.3,3.63h.37v1.81c.67-1.21,1.36-1.81,2.07-1.81a1.1,1.1,0,0,1,.8.29.91.91,0,0,1,.32.68.82.82,0,0,1-.23.58.71.71,0,0,1-.54.24,1.11,1.11,0,0,1-.69-.31,1.18,1.18,0,0,0-.57-.3.5.5,0,0,0-.34.18,4,4,0,0,0-.82,1.18v3.86a2.24,2.24,0,0,0,.17,1,.91.91,0,0,0,.4.4,1.82,1.82,0,0,0,.83.16v.31H554.6v-.31a1.72,1.72,0,0,0,.92-.2.72.72,0,0,0,.3-.44,4.33,4.33,0,0,0,0-.86v-3.12a12.36,12.36,0,0,0-.06-1.67.66.66,0,0,0-.21-.39.6.6,0,0,0-.38-.13,1.76,1.76,0,0,0-.62.14l-.09-.32Zm7.95,0a3.59,3.59,0,0,1,2.94,1.38,4.31,4.31,0,0,1,.94,2.73,5.23,5.23,0,0,1-.52,2.19A3.68,3.68,0,0,1,564.8,162a3.41,3.41,0,0,1-2.89-1.45,4.52,4.52,0,0,1-.9-2.74,4.78,4.78,0,0,1,.55-2.2,3.64,3.64,0,0,1,3.34-2.14Zm7.48,0h.38v8.1a4.54,4.54,0,0,1-.88,3.07,2.93,2.93,0,0,1-2.29,1,2,2,0,0,1-1.18-.29.79.79,0,0,1-.39-.6.73.73,0,0,1,.22-.53.7.7,0,0,1,.5-.22,1.06,1.06,0,0,1,.47.12,2.84,2.84,0,0,1,.57.44,1.2,1.2,0,0,0,.72.38.63.63,0,0,0,.41-.16.94.94,0,0,0,.3-.54,8.16,8.16,0,0,0,.1-1.66v-5.73a11.39,11.39,0,0,0-.08-1.71.79.79,0,0,0-.19-.4.58.58,0,0,0-.37-.11,1.71,1.71,0,0,0-.59.14l-.13-.32Zm6,0a3.77,3.77,0,0,1,1.76.36,1.65,1.65,0,0,1,.77.85,5,5,0,0,1,.15,1.54V159a11.65,11.65,0,0,0,0,1.41.68.68,0,0,0,.14.35.41.41,0,0,0,.24.08.48.48,0,0,0,.24-.06,4.65,4.65,0,0,0,.71-.64v.49c-.65.88-1.28,1.32-1.88,1.32a.85.85,0,0,1-.68-.3,1.64,1.64,0,0,1-.27-1,13,13,0,0,1-1.55,1.11,2.33,2.33,0,0,1-1,.22,1.82,1.82,0,0,1-1.38-.57,2.09,2.09,0,0,1-.54-1.5,1.85,1.85,0,0,1,.27-1,3.41,3.41,0,0,1,1.25-1.13,19.09,19.09,0,0,1,3-1.28v-.32a2.59,2.59,0,0,0-.38-1.65,1.36,1.36,0,0,0-1.11-.45,1.25,1.25,0,0,0-.88.3.91.91,0,0,0-.33.69l0,.51a.88.88,0,0,1-.21.62.7.7,0,0,1-.54.22.67.67,0,0,1-.53-.23.88.88,0,0,1-.21-.62,1.8,1.8,0,0,1,.77-1.39A3.36,3.36,0,0,1,578.33,153.48Zm6.68,0h.38v1.7a3.77,3.77,0,0,1,2.7-1.7,1.9,1.9,0,0,1,1.13.32,2.24,2.24,0,0,1,.76,1.09,5,5,0,0,1,.19,1.62v3.43a3,3,0,0,0,.12,1,.7.7,0,0,0,.32.34,1.6,1.6,0,0,0,.79.13v.31h-4v-.31h.17a1.36,1.36,0,0,0,.78-.17,1,1,0,0,0,.32-.51,6,6,0,0,0,0-.83v-3.29a3.39,3.39,0,0,0-.28-1.6,1,1,0,0,0-1-.49,2.9,2.9,0,0,0-2.08,1.14v4.24a2.79,2.79,0,0,0,.1,1,.83.83,0,0,0,.33.38,2.12,2.12,0,0,0,.88.12v.31h-4v-.31h.17a.94.94,0,0,0,.83-.32,2.17,2.17,0,0,0,.22-1.19v-3a11.75,11.75,0,0,0-.07-1.77.72.72,0,0,0-.2-.43.52.52,0,0,0-.36-.12,1.66,1.66,0,0,0-.59.14l-.13-.32Zm-20.38.57a1.9,1.9,0,0,0-.94.27,2,2,0,0,0-.76,1,4.79,4.79,0,0,0-.29,1.79,6.17,6.17,0,0,0,.7,3,2.09,2.09,0,0,0,1.84,1.28,1.72,1.72,0,0,0,1.41-.71,4,4,0,0,0,.55-2.41,5.56,5.56,0,0,0-.92-3.38A1.91,1.91,0,0,0,564.63,154.05ZM579.56,157c-.88.36-1.45.6-1.71.75a3,3,0,0,0-1,.81,1.56,1.56,0,0,0-.3.92,1.48,1.48,0,0,0,.38,1.05,1.14,1.14,0,0,0,.87.42,3.14,3.14,0,0,0,1.75-.88Z" transform="translate(-68.52 -53.4)"/><path class="cls-6" d="M572,149.26a.84.84,0,0,1,.64.26.87.87,0,0,1,.27.64.83.83,0,0,1-.27.63.85.85,0,0,1-.64.27.86.86,0,0,1-.63-.27.82.82,0,0,1-.26-.63.89.89,0,0,1,.89-.9Zm-27.35.59h9.73l.13,2.79h-.34a3.28,3.28,0,0,0-.26-1,1.79,1.79,0,0,0-.73-.76,2.51,2.51,0,0,0-1.19-.24h-1.67v9.11a2.44,2.44,0,0,0,.23,1.37,1.36,1.36,0,0,0,1,.37H552v.32h-5v-.32h.42a1.19,1.19,0,0,0,1.07-.46,2.61,2.61,0,0,0,.2-1.28v-9.11h-1.44a3.66,3.66,0,0,0-1.18.13,1.54,1.54,0,0,0-.78.64,2.52,2.52,0,0,0-.39,1.28h-.33Zm12.3,3.63h.37v1.81c.67-1.21,1.36-1.81,2.07-1.81a1.1,1.1,0,0,1,.8.29.91.91,0,0,1,.32.68.82.82,0,0,1-.23.58.71.71,0,0,1-.54.24,1.11,1.11,0,0,1-.69-.31,1.18,1.18,0,0,0-.57-.3.5.5,0,0,0-.34.18,4,4,0,0,0-.82,1.18v3.86a2.24,2.24,0,0,0,.17,1,.91.91,0,0,0,.4.4,1.82,1.82,0,0,0,.83.16v.31H554.6v-.31a1.72,1.72,0,0,0,.92-.2.72.72,0,0,0,.3-.44,4.33,4.33,0,0,0,0-.86v-3.12a12.36,12.36,0,0,0-.06-1.67.66.66,0,0,0-.21-.39.6.6,0,0,0-.38-.13,1.76,1.76,0,0,0-.62.14l-.09-.32Zm7.95,0a3.59,3.59,0,0,1,2.94,1.38,4.31,4.31,0,0,1,.94,2.73,5.23,5.23,0,0,1-.52,2.19A3.68,3.68,0,0,1,564.8,162a3.41,3.41,0,0,1-2.89-1.45,4.52,4.52,0,0,1-.9-2.74,4.78,4.78,0,0,1,.55-2.2,3.64,3.64,0,0,1,3.34-2.14Zm7.48,0h.38v8.1a4.54,4.54,0,0,1-.88,3.07,2.93,2.93,0,0,1-2.29,1,2,2,0,0,1-1.18-.29.79.79,0,0,1-.39-.6.73.73,0,0,1,.22-.53.7.7,0,0,1,.5-.22,1.06,1.06,0,0,1,.47.12,2.84,2.84,0,0,1,.57.44,1.2,1.2,0,0,0,.72.38.63.63,0,0,0,.41-.16.94.94,0,0,0,.3-.54,8.16,8.16,0,0,0,.1-1.66v-5.73a11.39,11.39,0,0,0-.08-1.71.79.79,0,0,0-.19-.4.58.58,0,0,0-.37-.11,1.71,1.71,0,0,0-.59.14l-.13-.32Zm6,0a3.77,3.77,0,0,1,1.76.36,1.65,1.65,0,0,1,.77.85,5,5,0,0,1,.15,1.54V159a11.65,11.65,0,0,0,0,1.41.68.68,0,0,0,.14.35.41.41,0,0,0,.24.08.48.48,0,0,0,.24-.06,4.65,4.65,0,0,0,.71-.64v.49c-.65.88-1.28,1.32-1.88,1.32a.85.85,0,0,1-.68-.3,1.64,1.64,0,0,1-.27-1,13,13,0,0,1-1.55,1.11,2.33,2.33,0,0,1-1,.22,1.82,1.82,0,0,1-1.38-.57,2.09,2.09,0,0,1-.54-1.5,1.85,1.85,0,0,1,.27-1,3.41,3.41,0,0,1,1.25-1.13,19.09,19.09,0,0,1,3-1.28v-.32a2.59,2.59,0,0,0-.38-1.65,1.36,1.36,0,0,0-1.11-.45,1.25,1.25,0,0,0-.88.3.91.91,0,0,0-.33.69l0,.51a.88.88,0,0,1-.21.62.7.7,0,0,1-.54.22.67.67,0,0,1-.53-.23.88.88,0,0,1-.21-.62,1.8,1.8,0,0,1,.77-1.39A3.36,3.36,0,0,1,578.33,153.48Zm6.68,0h.38v1.7a3.77,3.77,0,0,1,2.7-1.7,1.9,1.9,0,0,1,1.13.32,2.24,2.24,0,0,1,.76,1.09,5,5,0,0,1,.19,1.62v3.43a3,3,0,0,0,.12,1,.7.7,0,0,0,.32.34,1.6,1.6,0,0,0,.79.13v.31h-4v-.31h.17a1.36,1.36,0,0,0,.78-.17,1,1,0,0,0,.32-.51,6,6,0,0,0,0-.83v-3.29a3.39,3.39,0,0,0-.28-1.6,1,1,0,0,0-1-.49,2.9,2.9,0,0,0-2.08,1.14v4.24a2.79,2.79,0,0,0,.1,1,.83.83,0,0,0,.33.38,2.12,2.12,0,0,0,.88.12v.31h-4v-.31h.17a.94.94,0,0,0,.83-.32,2.17,2.17,0,0,0,.22-1.19v-3a11.75,11.75,0,0,0-.07-1.77.72.72,0,0,0-.2-.43.52.52,0,0,0-.36-.12,1.66,1.66,0,0,0-.59.14l-.13-.32Zm-20.38.57a1.9,1.9,0,0,0-.94.27,2,2,0,0,0-.76,1,4.79,4.79,0,0,0-.29,1.79,6.17,6.17,0,0,0,.7,3,2.09,2.09,0,0,0,1.84,1.28,1.72,1.72,0,0,0,1.41-.71,4,4,0,0,0,.55-2.41,5.56,5.56,0,0,0-.92-3.38A1.91,1.91,0,0,0,564.63,154.05ZM579.56,157c-.88.36-1.45.6-1.71.75a3,3,0,0,0-1,.81,1.56,1.56,0,0,0-.3.92,1.48,1.48,0,0,0,.38,1.05,1.14,1.14,0,0,0,.87.42,3.14,3.14,0,0,0,1.75-.88Z" transform="translate(-68.52 -53.4)"/><path class="cls-5" d="M548.81,171.17a5.05,5.05,0,0,1,2,.47,2,2,0,0,0,.69.22.56.56,0,0,0,.38-.14,1.14,1.14,0,0,0,.23-.55h.32v4.12h-.32a5.16,5.16,0,0,0-.57-1.88,2.91,2.91,0,0,0-1.16-1.12,3.2,3.2,0,0,0-1.57-.41,2.13,2.13,0,0,0-1.51.55,1.72,1.72,0,0,0-.6,1.27,1.52,1.52,0,0,0,.38,1,9.68,9.68,0,0,0,2.59,1.75,17,17,0,0,1,2.28,1.38,3.25,3.25,0,0,1,.94,1.13,3,3,0,0,1,.33,1.36,3.11,3.11,0,0,1-1,2.34,3.81,3.81,0,0,1-2.7,1,6,6,0,0,1-1-.08,10.52,10.52,0,0,1-1.13-.32,4.84,4.84,0,0,0-1.09-.28.46.46,0,0,0-.35.13,1.11,1.11,0,0,0-.18.55h-.33v-4.09h.33a5.77,5.77,0,0,0,.61,1.92,3,3,0,0,0,1.18,1.06,3.68,3.68,0,0,0,1.75.42,2.45,2.45,0,0,0,1.73-.58,1.78,1.78,0,0,0,.64-1.37,1.89,1.89,0,0,0-.24-.89,2.52,2.52,0,0,0-.75-.83,21,21,0,0,0-1.88-1.12,19.92,19.92,0,0,1-2.17-1.37,3.68,3.68,0,0,1-1-1.13,2.81,2.81,0,0,1-.33-1.35,2.91,2.91,0,0,1,1-2.21A3.5,3.5,0,0,1,548.81,171.17Zm9.74,3.9a3,3,0,0,1,2.22.89,3.26,3.26,0,0,1,.87,2.38h-5.56a4.11,4.11,0,0,0,.87,2.82,2.64,2.64,0,0,0,2.06,1,2.25,2.25,0,0,0,1.38-.44,3.28,3.28,0,0,0,1-1.49l.27.18a4.18,4.18,0,0,1-1.07,2.19,2.87,2.87,0,0,1-2.23,1,3.26,3.26,0,0,1-2.48-1.13,4.32,4.32,0,0,1-1-3,4.58,4.58,0,0,1,1.06-3.22A3.44,3.44,0,0,1,558.55,175.07Zm23,0a3,3,0,0,1,2.22.89,3.26,3.26,0,0,1,.87,2.38h-5.56a4.11,4.11,0,0,0,.87,2.82,2.64,2.64,0,0,0,2.06,1,2.25,2.25,0,0,0,1.38-.44,3.28,3.28,0,0,0,1-1.49l.27.18a4.18,4.18,0,0,1-1.07,2.19,2.87,2.87,0,0,1-2.23,1,3.26,3.26,0,0,1-2.48-1.13,4.32,4.32,0,0,1-1-3,4.58,4.58,0,0,1,1.06-3.22A3.44,3.44,0,0,1,581.59,175.07Zm-16.84,0h.37v1.81c.67-1.21,1.36-1.81,2.07-1.81a1.1,1.1,0,0,1,.8.29.91.91,0,0,1,.32.68.82.82,0,0,1-.23.58.71.71,0,0,1-.54.24,1.11,1.11,0,0,1-.69-.31,1.18,1.18,0,0,0-.57-.3.5.5,0,0,0-.34.18,4,4,0,0,0-.82,1.18v3.86a2.24,2.24,0,0,0,.17,1,.91.91,0,0,0,.4.4,1.82,1.82,0,0,0,.83.16v.31H562.4v-.31a1.72,1.72,0,0,0,.92-.2.72.72,0,0,0,.3-.44,4.33,4.33,0,0,0,0-.86v-3.12a12.25,12.25,0,0,0-.06-1.67.66.66,0,0,0-.21-.39.6.6,0,0,0-.38-.13,1.76,1.76,0,0,0-.62.14l-.09-.32Zm23,0h.37v1.81c.67-1.21,1.36-1.81,2.07-1.81a1.11,1.11,0,0,1,.8.29.91.91,0,0,1,.32.68.82.82,0,0,1-.23.58.71.71,0,0,1-.54.24,1.11,1.11,0,0,1-.69-.31,1.18,1.18,0,0,0-.57-.3.5.5,0,0,0-.34.18,4,4,0,0,0-.82,1.18v3.86a2.24,2.24,0,0,0,.17,1,.91.91,0,0,0,.4.4,1.82,1.82,0,0,0,.83.16v.31h-4.12v-.31a1.72,1.72,0,0,0,.92-.2.72.72,0,0,0,.3-.44,4.33,4.33,0,0,0,.05-.86v-3.12a12.25,12.25,0,0,0-.06-1.67.66.66,0,0,0-.21-.39.6.6,0,0,0-.38-.13,1.76,1.76,0,0,0-.62.14l-.09-.32Zm-19.44.23h3.79v.33h-.25a.74.74,0,0,0-.52.16.61.61,0,0,0-.18.45,1.89,1.89,0,0,0,.18.73l1.88,4.45,1.88-4.61a2.32,2.32,0,0,0,.2-.75.27.27,0,0,0-.07-.2.49.49,0,0,0-.25-.18,2,2,0,0,0-.6-.05v-.33H577v.33a1.12,1.12,0,0,0-.63.18,2.3,2.3,0,0,0-.55.88L573,183.61h-.36l-2.87-6.79a3,3,0,0,0-.37-.69,1.57,1.57,0,0,0-.45-.34,1.79,1.79,0,0,0-.59-.15Zm-10.3.38a1.8,1.8,0,0,0-1.3.57,2.45,2.45,0,0,0-.67,1.57h3.72a3.71,3.71,0,0,0-.18-1.09A1.83,1.83,0,0,0,559,176,1.62,1.62,0,0,0,558.05,175.69Zm23,0a1.8,1.8,0,0,0-1.3.57,2.45,2.45,0,0,0-.67,1.57h3.72a3.71,3.71,0,0,0-.18-1.09A1.83,1.83,0,0,0,582,176,1.62,1.62,0,0,0,581.09,175.69Z" transform="translate(-68.52 -53.4)"/><path class="cls-6" d="M548.81,171.17a5.05,5.05,0,0,1,2,.47,2,2,0,0,0,.69.22.56.56,0,0,0,.38-.14,1.14,1.14,0,0,0,.23-.55h.32v4.12h-.32a5.16,5.16,0,0,0-.57-1.88,2.91,2.91,0,0,0-1.16-1.12,3.2,3.2,0,0,0-1.57-.41,2.13,2.13,0,0,0-1.51.55,1.72,1.72,0,0,0-.6,1.27,1.52,1.52,0,0,0,.38,1,9.68,9.68,0,0,0,2.59,1.75,17,17,0,0,1,2.28,1.38,3.25,3.25,0,0,1,.94,1.13,3,3,0,0,1,.33,1.36,3.11,3.11,0,0,1-1,2.34,3.81,3.81,0,0,1-2.7,1,6,6,0,0,1-1-.08,10.52,10.52,0,0,1-1.13-.32,4.84,4.84,0,0,0-1.09-.28.46.46,0,0,0-.35.13,1.11,1.11,0,0,0-.18.55h-.33v-4.09h.33a5.77,5.77,0,0,0,.61,1.92,3,3,0,0,0,1.18,1.06,3.68,3.68,0,0,0,1.75.42,2.45,2.45,0,0,0,1.73-.58,1.78,1.78,0,0,0,.64-1.37,1.89,1.89,0,0,0-.24-.89,2.52,2.52,0,0,0-.75-.83,21,21,0,0,0-1.88-1.12,19.92,19.92,0,0,1-2.17-1.37,3.68,3.68,0,0,1-1-1.13,2.81,2.81,0,0,1-.33-1.35,2.91,2.91,0,0,1,1-2.21A3.5,3.5,0,0,1,548.81,171.17Zm9.74,3.9a3,3,0,0,1,2.22.89,3.26,3.26,0,0,1,.87,2.38h-5.56a4.11,4.11,0,0,0,.87,2.82,2.64,2.64,0,0,0,2.06,1,2.25,2.25,0,0,0,1.38-.44,3.28,3.28,0,0,0,1-1.49l.27.18a4.18,4.18,0,0,1-1.07,2.19,2.87,2.87,0,0,1-2.23,1,3.26,3.26,0,0,1-2.48-1.13,4.32,4.32,0,0,1-1-3,4.58,4.58,0,0,1,1.06-3.22A3.44,3.44,0,0,1,558.55,175.07Zm23,0a3,3,0,0,1,2.22.89,3.26,3.26,0,0,1,.87,2.38h-5.56a4.11,4.11,0,0,0,.87,2.82,2.64,2.64,0,0,0,2.06,1,2.25,2.25,0,0,0,1.38-.44,3.28,3.28,0,0,0,1-1.49l.27.18a4.18,4.18,0,0,1-1.07,2.19,2.87,2.87,0,0,1-2.23,1,3.26,3.26,0,0,1-2.48-1.13,4.32,4.32,0,0,1-1-3,4.58,4.58,0,0,1,1.06-3.22A3.44,3.44,0,0,1,581.59,175.07Zm-16.84,0h.37v1.81c.67-1.21,1.36-1.81,2.07-1.81a1.1,1.1,0,0,1,.8.29.91.91,0,0,1,.32.68.82.82,0,0,1-.23.58.71.71,0,0,1-.54.24,1.11,1.11,0,0,1-.69-.31,1.18,1.18,0,0,0-.57-.3.5.5,0,0,0-.34.18,4,4,0,0,0-.82,1.18v3.86a2.24,2.24,0,0,0,.17,1,.91.91,0,0,0,.4.4,1.82,1.82,0,0,0,.83.16v.31H562.4v-.31a1.72,1.72,0,0,0,.92-.2.72.72,0,0,0,.3-.44,4.33,4.33,0,0,0,0-.86v-3.12a12.25,12.25,0,0,0-.06-1.67.66.66,0,0,0-.21-.39.6.6,0,0,0-.38-.13,1.76,1.76,0,0,0-.62.14l-.09-.32Zm23,0h.37v1.81c.67-1.21,1.36-1.81,2.07-1.81a1.11,1.11,0,0,1,.8.29.91.91,0,0,1,.32.68.82.82,0,0,1-.23.58.71.71,0,0,1-.54.24,1.11,1.11,0,0,1-.69-.31,1.18,1.18,0,0,0-.57-.3.5.5,0,0,0-.34.18,4,4,0,0,0-.82,1.18v3.86a2.24,2.24,0,0,0,.17,1,.91.91,0,0,0,.4.4,1.82,1.82,0,0,0,.83.16v.31h-4.12v-.31a1.72,1.72,0,0,0,.92-.2.72.72,0,0,0,.3-.44,4.33,4.33,0,0,0,.05-.86v-3.12a12.25,12.25,0,0,0-.06-1.67.66.66,0,0,0-.21-.39.6.6,0,0,0-.38-.13,1.76,1.76,0,0,0-.62.14l-.09-.32Zm-19.44.23h3.79v.33h-.25a.74.74,0,0,0-.52.16.61.61,0,0,0-.18.45,1.89,1.89,0,0,0,.18.73l1.88,4.45,1.88-4.61a2.32,2.32,0,0,0,.2-.75.27.27,0,0,0-.07-.2.49.49,0,0,0-.25-.18,2,2,0,0,0-.6-.05v-.33H577v.33a1.12,1.12,0,0,0-.63.18,2.3,2.3,0,0,0-.55.88L573,183.61h-.36l-2.87-6.79a3,3,0,0,0-.37-.69,1.57,1.57,0,0,0-.45-.34,1.79,1.79,0,0,0-.59-.15Zm-10.3.38a1.8,1.8,0,0,0-1.3.57,2.45,2.45,0,0,0-.67,1.57h3.72a3.71,3.71,0,0,0-.18-1.09A1.83,1.83,0,0,0,559,176,1.62,1.62,0,0,0,558.05,175.69Zm23,0a1.8,1.8,0,0,0-1.3.57,2.45,2.45,0,0,0-.67,1.57h3.72a3.71,3.71,0,0,0-.18-1.09A1.83,1.83,0,0,0,582,176,1.62,1.62,0,0,0,581.09,175.69Z" transform="translate(-68.52 -53.4)"/><rect class="cls-8" x="228.24" y="105.12" width="97.8" height="19.8"/><rect class="cls-9" x="228.24" y="105.12" width="97.8" height="19.8"/><path class="cls-5" d="M308.52,162.88a3.11,3.11,0,0,1,2.46,1.39,7.4,7.4,0,0,1,1.36,4.7,9.22,9.22,0,0,1-.6,3.52,4.6,4.6,0,0,1-1.52,2.11,3.18,3.18,0,0,1-1.79.65,3.29,3.29,0,0,1-2.84-2,8.17,8.17,0,0,1-1-4.09,9.07,9.07,0,0,1,.62-3.51,4.9,4.9,0,0,1,1.63-2.19A2.79,2.79,0,0,1,308.52,162.88Zm13.56,0a3.11,3.11,0,0,1,2.46,1.39,7.4,7.4,0,0,1,1.36,4.7,9.22,9.22,0,0,1-.6,3.52,4.6,4.6,0,0,1-1.52,2.11,3.18,3.18,0,0,1-1.79.65,3.29,3.29,0,0,1-2.84-2,8.17,8.17,0,0,1-1-4.09,9.07,9.07,0,0,1,.62-3.51,4.9,4.9,0,0,1,1.63-2.19A2.79,2.79,0,0,1,322.08,162.88Zm13.56,0a3.11,3.11,0,0,1,2.46,1.39,7.4,7.4,0,0,1,1.36,4.7,9.22,9.22,0,0,1-.6,3.52,4.6,4.6,0,0,1-1.52,2.11,3.18,3.18,0,0,1-1.79.65,3.29,3.29,0,0,1-2.84-2,8.17,8.17,0,0,1-1-4.09,9.07,9.07,0,0,1,.62-3.51,4.9,4.9,0,0,1,1.63-2.19A2.79,2.79,0,0,1,335.64,162.88Zm13.56,0a3.11,3.11,0,0,1,2.46,1.39A7.4,7.4,0,0,1,353,169a9.22,9.22,0,0,1-.6,3.52,4.6,4.6,0,0,1-1.52,2.11,3.18,3.18,0,0,1-1.79.65,3.29,3.29,0,0,1-2.84-2,8.17,8.17,0,0,1-1-4.09,9.07,9.07,0,0,1,.62-3.51,4.9,4.9,0,0,1,1.63-2.19A2.79,2.79,0,0,1,349.2,162.88Zm15.31,0h1v7.77h1.6v1.24h-1.6V175H364v-3.15h-5v-1.12Zm9,0h1v7.77h1.6v1.24h-1.6V175H373v-3.15h-5v-1.12Zm7.33,0a2.68,2.68,0,0,1,2.2.93,2.26,2.26,0,0,1,.58,1.48A3.74,3.74,0,0,1,382,168a3.61,3.61,0,0,1,1.66,1.23,3.23,3.23,0,0,1,.56,1.88,3.92,3.92,0,0,1-1,2.68,4.62,4.62,0,0,1-3.71,1.48,3.11,3.11,0,0,1-1.64-.3.82.82,0,0,1-.44-.64.6.6,0,0,1,.21-.45.69.69,0,0,1,.5-.19,1.39,1.39,0,0,1,.44.07,5.9,5.9,0,0,1,.68.32,5.46,5.46,0,0,0,.73.33,2.61,2.61,0,0,0,.69.1,2.06,2.06,0,0,0,1.56-.7,2.27,2.27,0,0,0,.67-1.64,3.06,3.06,0,0,0-.31-1.35,2.38,2.38,0,0,0-.5-.75,3.5,3.5,0,0,0-1-.64,3.36,3.36,0,0,0-1.34-.28h-.28v-.27a3.6,3.6,0,0,0,1.39-.5,2.6,2.6,0,0,0,1-1,2.54,2.54,0,0,0,.32-1.28,2,2,0,0,0-.57-1.46,1.91,1.91,0,0,0-1.41-.56,2.67,2.67,0,0,0-2.27,1.46l-.29-.14a5,5,0,0,1,1.28-1.86A2.9,2.9,0,0,1,380.84,162.88Zm-72.33.58a1.39,1.39,0,0,0-1.06.53,4.48,4.48,0,0,0-.87,2.3,21.58,21.58,0,0,0-.22,3.08,11.36,11.36,0,0,0,.6,4c.34.87.83,1.31,1.5,1.31a1.54,1.54,0,0,0,1-.43,2.65,2.65,0,0,0,.77-1.43,17.25,17.25,0,0,0,.41-4.26,11.71,11.71,0,0,0-.42-3.4,3,3,0,0,0-.82-1.43A1.31,1.31,0,0,0,308.51,163.46Zm13.56,0A1.39,1.39,0,0,0,321,164a4.48,4.48,0,0,0-.87,2.3,21.58,21.58,0,0,0-.22,3.08,11.36,11.36,0,0,0,.6,4c.34.87.83,1.31,1.5,1.31a1.54,1.54,0,0,0,1-.43,2.65,2.65,0,0,0,.77-1.43,17.25,17.25,0,0,0,.41-4.26,11.71,11.71,0,0,0-.42-3.4,3,3,0,0,0-.82-1.43A1.31,1.31,0,0,0,322.07,163.46Zm13.56,0a1.39,1.39,0,0,0-1.06.53,4.48,4.48,0,0,0-.87,2.3,21.58,21.58,0,0,0-.22,3.08,11.36,11.36,0,0,0,.6,4c.34.87.83,1.31,1.5,1.31a1.54,1.54,0,0,0,1-.43,2.65,2.65,0,0,0,.77-1.43,17.25,17.25,0,0,0,.41-4.26,11.71,11.71,0,0,0-.42-3.4,3,3,0,0,0-.82-1.43A1.31,1.31,0,0,0,335.63,163.46Zm13.56,0a1.39,1.39,0,0,0-1.06.53,4.48,4.48,0,0,0-.87,2.3,21.58,21.58,0,0,0-.22,3.08,11.36,11.36,0,0,0,.6,4c.34.87.83,1.31,1.5,1.31a1.54,1.54,0,0,0,1-.43,2.65,2.65,0,0,0,.77-1.43,17.25,17.25,0,0,0,.41-4.26,11.71,11.71,0,0,0-.42-3.4,3,3,0,0,0-.82-1.43A1.31,1.31,0,0,0,349.19,163.46ZM364,164.73l-4.18,5.92H364Zm9,0-4.18,5.92H373Zm-16.83,2a1,1,0,1,1-.69.29A.94.94,0,0,1,356.2,166.74Zm0,6.59a.91.91,0,0,1,.69.29,1,1,0,1,1-1.38,0A.91.91,0,0,1,356.19,173.33Zm-41,0a.94.94,0,0,1,.7.28,1,1,0,0,1,.28.69,1,1,0,1,1-1.95,0,.92.92,0,0,1,.28-.69A.94.94,0,0,1,315.23,173.34Zm13.56,0a.94.94,0,0,1,.7.28,1,1,0,0,1,.28.69,1,1,0,1,1-1.95,0,.92.92,0,0,1,.28-.69A.94.94,0,0,1,328.79,173.34Zm13.56,0a.94.94,0,0,1,.7.28,1,1,0,0,1,.28.69,1,1,0,1,1-1.95,0,.92.92,0,0,1,.28-.69A.94.94,0,0,1,342.35,173.34Z" transform="translate(-68.52 -53.4)"/><path class="cls-6" d="M308.52,162.88a3.11,3.11,0,0,1,2.46,1.39,7.4,7.4,0,0,1,1.36,4.7,9.22,9.22,0,0,1-.6,3.52,4.6,4.6,0,0,1-1.52,2.11,3.18,3.18,0,0,1-1.79.65,3.29,3.29,0,0,1-2.84-2,8.17,8.17,0,0,1-1-4.09,9.07,9.07,0,0,1,.62-3.51,4.9,4.9,0,0,1,1.63-2.19A2.79,2.79,0,0,1,308.52,162.88Zm13.56,0a3.11,3.11,0,0,1,2.46,1.39,7.4,7.4,0,0,1,1.36,4.7,9.22,9.22,0,0,1-.6,3.52,4.6,4.6,0,0,1-1.52,2.11,3.18,3.18,0,0,1-1.79.65,3.29,3.29,0,0,1-2.84-2,8.17,8.17,0,0,1-1-4.09,9.07,9.07,0,0,1,.62-3.51,4.9,4.9,0,0,1,1.63-2.19A2.79,2.79,0,0,1,322.08,162.88Zm13.56,0a3.11,3.11,0,0,1,2.46,1.39,7.4,7.4,0,0,1,1.36,4.7,9.22,9.22,0,0,1-.6,3.52,4.6,4.6,0,0,1-1.52,2.11,3.18,3.18,0,0,1-1.79.65,3.29,3.29,0,0,1-2.84-2,8.17,8.17,0,0,1-1-4.09,9.07,9.07,0,0,1,.62-3.51,4.9,4.9,0,0,1,1.63-2.19A2.79,2.79,0,0,1,335.64,162.88Zm13.56,0a3.11,3.11,0,0,1,2.46,1.39A7.4,7.4,0,0,1,353,169a9.22,9.22,0,0,1-.6,3.52,4.6,4.6,0,0,1-1.52,2.11,3.18,3.18,0,0,1-1.79.65,3.29,3.29,0,0,1-2.84-2,8.17,8.17,0,0,1-1-4.09,9.07,9.07,0,0,1,.62-3.51,4.9,4.9,0,0,1,1.63-2.19A2.79,2.79,0,0,1,349.2,162.88Zm15.31,0h1v7.77h1.6v1.24h-1.6V175H364v-3.15h-5v-1.12Zm9,0h1v7.77h1.6v1.24h-1.6V175H373v-3.15h-5v-1.12Zm7.33,0a2.68,2.68,0,0,1,2.2.93,2.26,2.26,0,0,1,.58,1.48A3.74,3.74,0,0,1,382,168a3.61,3.61,0,0,1,1.66,1.23,3.23,3.23,0,0,1,.56,1.88,3.92,3.92,0,0,1-1,2.68,4.62,4.62,0,0,1-3.71,1.48,3.11,3.11,0,0,1-1.64-.3.82.82,0,0,1-.44-.64.6.6,0,0,1,.21-.45.69.69,0,0,1,.5-.19,1.39,1.39,0,0,1,.44.07,5.9,5.9,0,0,1,.68.32,5.46,5.46,0,0,0,.73.33,2.61,2.61,0,0,0,.69.1,2.06,2.06,0,0,0,1.56-.7,2.27,2.27,0,0,0,.67-1.64,3.06,3.06,0,0,0-.31-1.35,2.38,2.38,0,0,0-.5-.75,3.5,3.5,0,0,0-1-.64,3.36,3.36,0,0,0-1.34-.28h-.28v-.27a3.6,3.6,0,0,0,1.39-.5,2.6,2.6,0,0,0,1-1,2.54,2.54,0,0,0,.32-1.28,2,2,0,0,0-.57-1.46,1.91,1.91,0,0,0-1.41-.56,2.67,2.67,0,0,0-2.27,1.46l-.29-.14a5,5,0,0,1,1.28-1.86A2.9,2.9,0,0,1,380.84,162.88Zm-72.33.58a1.39,1.39,0,0,0-1.06.53,4.48,4.48,0,0,0-.87,2.3,21.58,21.58,0,0,0-.22,3.08,11.36,11.36,0,0,0,.6,4c.34.87.83,1.31,1.5,1.31a1.54,1.54,0,0,0,1-.43,2.65,2.65,0,0,0,.77-1.43,17.25,17.25,0,0,0,.41-4.26,11.71,11.71,0,0,0-.42-3.4,3,3,0,0,0-.82-1.43A1.31,1.31,0,0,0,308.51,163.46Zm13.56,0A1.39,1.39,0,0,0,321,164a4.48,4.48,0,0,0-.87,2.3,21.58,21.58,0,0,0-.22,3.08,11.36,11.36,0,0,0,.6,4c.34.87.83,1.31,1.5,1.31a1.54,1.54,0,0,0,1-.43,2.65,2.65,0,0,0,.77-1.43,17.25,17.25,0,0,0,.41-4.26,11.71,11.71,0,0,0-.42-3.4,3,3,0,0,0-.82-1.43A1.31,1.31,0,0,0,322.07,163.46Zm13.56,0a1.39,1.39,0,0,0-1.06.53,4.48,4.48,0,0,0-.87,2.3,21.58,21.58,0,0,0-.22,3.08,11.36,11.36,0,0,0,.6,4c.34.87.83,1.31,1.5,1.31a1.54,1.54,0,0,0,1-.43,2.65,2.65,0,0,0,.77-1.43,17.25,17.25,0,0,0,.41-4.26,11.71,11.71,0,0,0-.42-3.4,3,3,0,0,0-.82-1.43A1.31,1.31,0,0,0,335.63,163.46Zm13.56,0a1.39,1.39,0,0,0-1.06.53,4.48,4.48,0,0,0-.87,2.3,21.58,21.58,0,0,0-.22,3.08,11.36,11.36,0,0,0,.6,4c.34.87.83,1.31,1.5,1.31a1.54,1.54,0,0,0,1-.43,2.65,2.65,0,0,0,.77-1.43,17.25,17.25,0,0,0,.41-4.26,11.71,11.71,0,0,0-.42-3.4,3,3,0,0,0-.82-1.43A1.31,1.31,0,0,0,349.19,163.46ZM364,164.73l-4.18,5.92H364Zm9,0-4.18,5.92H373Zm-16.83,2a1,1,0,1,1-.69.29A.94.94,0,0,1,356.2,166.74Zm0,6.59a.91.91,0,0,1,.69.29,1,1,0,1,1-1.38,0A.91.91,0,0,1,356.19,173.33Zm-41,0a.94.94,0,0,1,.7.28,1,1,0,0,1,.28.69,1,1,0,1,1-1.95,0,.92.92,0,0,1,.28-.69A.94.94,0,0,1,315.23,173.34Zm13.56,0a.94.94,0,0,1,.7.28,1,1,0,0,1,.28.69,1,1,0,1,1-1.95,0,.92.92,0,0,1,.28-.69A.94.94,0,0,1,328.79,173.34Zm13.56,0a.94.94,0,0,1,.7.28,1,1,0,0,1,.28.69,1,1,0,1,1-1.95,0,.92.92,0,0,1,.28-.69A.94.94,0,0,1,342.35,173.34Z" transform="translate(-68.52 -53.4)"/><rect class="cls-8" x="228.24" y="231" width="97.8" height="19.8"/><rect class="cls-9" x="228.24" y="231" width="97.8" height="19.8"/><path class="cls-5" d="M308.52,288.71a3.13,3.13,0,0,1,2.46,1.4,7.37,7.37,0,0,1,1.36,4.69,9.27,9.27,0,0,1-.6,3.53,4.62,4.62,0,0,1-1.52,2.1,3.12,3.12,0,0,1-1.79.66,3.29,3.29,0,0,1-2.84-2,8.15,8.15,0,0,1-1-4.08,9.07,9.07,0,0,1,.62-3.51,4.88,4.88,0,0,1,1.63-2.2A2.79,2.79,0,0,1,308.52,288.71Zm13.56,0a3.13,3.13,0,0,1,2.46,1.4,7.37,7.37,0,0,1,1.36,4.69,9.27,9.27,0,0,1-.6,3.53,4.62,4.62,0,0,1-1.52,2.1,3.12,3.12,0,0,1-1.79.66,3.29,3.29,0,0,1-2.84-2,8.15,8.15,0,0,1-1-4.08,9.07,9.07,0,0,1,.62-3.51,4.88,4.88,0,0,1,1.63-2.2A2.79,2.79,0,0,1,322.08,288.71Zm13.56,0a3.13,3.13,0,0,1,2.46,1.4,7.37,7.37,0,0,1,1.36,4.69,9.27,9.27,0,0,1-.6,3.53,4.62,4.62,0,0,1-1.52,2.1,3.12,3.12,0,0,1-1.79.66,3.29,3.29,0,0,1-2.84-2,8.15,8.15,0,0,1-1-4.08,9.07,9.07,0,0,1,.62-3.51,4.88,4.88,0,0,1,1.63-2.2A2.79,2.79,0,0,1,335.64,288.71Zm13.56,0a3.13,3.13,0,0,1,2.46,1.4A7.37,7.37,0,0,1,353,294.8a9.27,9.27,0,0,1-.6,3.53,4.62,4.62,0,0,1-1.52,2.1,3.12,3.12,0,0,1-1.79.66,3.29,3.29,0,0,1-2.84-2,8.15,8.15,0,0,1-1-4.08,9.07,9.07,0,0,1,.62-3.51,4.88,4.88,0,0,1,1.63-2.2A2.79,2.79,0,0,1,349.2,288.71Zm14,0a3.36,3.36,0,0,1,2.32.78,2.33,2.33,0,0,1,.88,1.79,2.45,2.45,0,0,1-.47,1.36,6.93,6.93,0,0,1-2,1.63,11.48,11.48,0,0,1,2.05,1.89,3.12,3.12,0,0,1,.67,1.89,2.82,2.82,0,0,1-1,2.14,3.54,3.54,0,0,1-2.52.9,3.35,3.35,0,0,1-2.64-1.07,2.73,2.73,0,0,1-.76-1.86,2.79,2.79,0,0,1,.53-1.57,7.8,7.8,0,0,1,1.84-1.72,8.22,8.22,0,0,1-1.83-1.86,2.91,2.91,0,0,1-.41-1.46,2.65,2.65,0,0,1,.9-2A3.34,3.34,0,0,1,363.2,288.71Zm9,0a3.13,3.13,0,0,1,2.46,1.4,7.37,7.37,0,0,1,1.36,4.69,9.27,9.27,0,0,1-.6,3.53,4.62,4.62,0,0,1-1.52,2.1,3.12,3.12,0,0,1-1.79.66,3.29,3.29,0,0,1-2.84-2,8.15,8.15,0,0,1-1-4.08,9.07,9.07,0,0,1,.62-3.51,4.88,4.88,0,0,1,1.63-2.2A2.79,2.79,0,0,1,372.24,288.71Zm-9,.51a2.06,2.06,0,0,0-1.46.52,1.62,1.62,0,0,0-.56,1.21,2.09,2.09,0,0,0,.23.92,3.5,3.5,0,0,0,.67.87l1.44,1.19a6,6,0,0,0,1.33-1.5,2.63,2.63,0,0,0,.28-1.24,2,2,0,0,0-.51-1.45A2,2,0,0,0,363.22,289.22Zm-54.71.07a1.37,1.37,0,0,0-1.06.54,4.44,4.44,0,0,0-.87,2.29,21.61,21.61,0,0,0-.22,3.09,11.26,11.26,0,0,0,.6,4c.34.88.83,1.31,1.5,1.31a1.58,1.58,0,0,0,1-.42,2.69,2.69,0,0,0,.77-1.43,17.31,17.31,0,0,0,.41-4.26,11.79,11.79,0,0,0-.42-3.41,3,3,0,0,0-.82-1.43A1.36,1.36,0,0,0,308.51,289.29Zm13.56,0a1.37,1.37,0,0,0-1.06.54,4.44,4.44,0,0,0-.87,2.29,21.61,21.61,0,0,0-.22,3.09,11.26,11.26,0,0,0,.6,4c.34.88.83,1.31,1.5,1.31a1.58,1.58,0,0,0,1-.42,2.69,2.69,0,0,0,.77-1.43,17.31,17.31,0,0,0,.41-4.26,11.79,11.79,0,0,0-.42-3.41,3,3,0,0,0-.82-1.43A1.36,1.36,0,0,0,322.07,289.29Zm13.56,0a1.37,1.37,0,0,0-1.06.54,4.44,4.44,0,0,0-.87,2.29,21.61,21.61,0,0,0-.22,3.09,11.26,11.26,0,0,0,.6,4c.34.88.83,1.31,1.5,1.31a1.58,1.58,0,0,0,1-.42,2.69,2.69,0,0,0,.77-1.43,17.31,17.31,0,0,0,.41-4.26,11.79,11.79,0,0,0-.42-3.41,3,3,0,0,0-.82-1.43A1.36,1.36,0,0,0,335.63,289.29Zm13.56,0a1.37,1.37,0,0,0-1.06.54,4.44,4.44,0,0,0-.87,2.29,21.61,21.61,0,0,0-.22,3.09,11.26,11.26,0,0,0,.6,4c.34.88.83,1.31,1.5,1.31a1.58,1.58,0,0,0,1-.42,2.69,2.69,0,0,0,.77-1.43,17.31,17.31,0,0,0,.41-4.26,11.79,11.79,0,0,0-.42-3.41,3,3,0,0,0-.82-1.43A1.36,1.36,0,0,0,349.19,289.29Zm23,0a1.37,1.37,0,0,0-1.06.54,4.44,4.44,0,0,0-.87,2.29,21.61,21.61,0,0,0-.22,3.09,11.26,11.26,0,0,0,.6,4c.34.88.83,1.31,1.5,1.31a1.58,1.58,0,0,0,1-.42,2.69,2.69,0,0,0,.77-1.43,17.31,17.31,0,0,0,.41-4.26,11.79,11.79,0,0,0-.42-3.41,3,3,0,0,0-.82-1.43A1.36,1.36,0,0,0,372.23,289.29Zm-16,3.29a1,1,0,1,1-.69.28A.94.94,0,0,1,356.2,292.58Zm6.37,2.63a4,4,0,0,0-1.08,1.34,3.44,3.44,0,0,0-.35,1.57,2.55,2.55,0,0,0,.62,1.81,2,2,0,0,0,1.57.68,2.19,2.19,0,0,0,1.53-.53,1.74,1.74,0,0,0,.57-1.31,1.93,1.93,0,0,0-.34-1.13A12.24,12.24,0,0,0,362.57,295.21Zm-6.38,4a.94.94,0,0,1,.69.29,1,1,0,0,1,.29.7,1,1,0,0,1-2,0,1,1,0,0,1,.29-.7A.94.94,0,0,1,356.19,299.16Zm-41,0a1,1,0,0,1,.7.29,1,1,0,0,1,.28.69,1,1,0,1,1-1-1Zm13.56,0a1,1,0,0,1,.7.29,1,1,0,0,1,.28.69,1,1,0,1,1-1-1Zm13.56,0a1,1,0,0,1,.7.29,1,1,0,0,1,.28.69,1,1,0,1,1-1-1Z" transform="translate(-68.52 -53.4)"/><path class="cls-6" d="M308.52,288.71a3.13,3.13,0,0,1,2.46,1.4,7.37,7.37,0,0,1,1.36,4.69,9.27,9.27,0,0,1-.6,3.53,4.62,4.62,0,0,1-1.52,2.1,3.12,3.12,0,0,1-1.79.66,3.29,3.29,0,0,1-2.84-2,8.15,8.15,0,0,1-1-4.08,9.07,9.07,0,0,1,.62-3.51,4.88,4.88,0,0,1,1.63-2.2A2.79,2.79,0,0,1,308.52,288.71Zm13.56,0a3.13,3.13,0,0,1,2.46,1.4,7.37,7.37,0,0,1,1.36,4.69,9.27,9.27,0,0,1-.6,3.53,4.62,4.62,0,0,1-1.52,2.1,3.12,3.12,0,0,1-1.79.66,3.29,3.29,0,0,1-2.84-2,8.15,8.15,0,0,1-1-4.08,9.07,9.07,0,0,1,.62-3.51,4.88,4.88,0,0,1,1.63-2.2A2.79,2.79,0,0,1,322.08,288.71Zm13.56,0a3.13,3.13,0,0,1,2.46,1.4,7.37,7.37,0,0,1,1.36,4.69,9.27,9.27,0,0,1-.6,3.53,4.62,4.62,0,0,1-1.52,2.1,3.12,3.12,0,0,1-1.79.66,3.29,3.29,0,0,1-2.84-2,8.15,8.15,0,0,1-1-4.08,9.07,9.07,0,0,1,.62-3.51,4.88,4.88,0,0,1,1.63-2.2A2.79,2.79,0,0,1,335.64,288.71Zm13.56,0a3.13,3.13,0,0,1,2.46,1.4A7.37,7.37,0,0,1,353,294.8a9.27,9.27,0,0,1-.6,3.53,4.62,4.62,0,0,1-1.52,2.1,3.12,3.12,0,0,1-1.79.66,3.29,3.29,0,0,1-2.84-2,8.15,8.15,0,0,1-1-4.08,9.07,9.07,0,0,1,.62-3.51,4.88,4.88,0,0,1,1.63-2.2A2.79,2.79,0,0,1,349.2,288.71Zm14,0a3.36,3.36,0,0,1,2.32.78,2.33,2.33,0,0,1,.88,1.79,2.45,2.45,0,0,1-.47,1.36,6.93,6.93,0,0,1-2,1.63,11.48,11.48,0,0,1,2.05,1.89,3.12,3.12,0,0,1,.67,1.89,2.82,2.82,0,0,1-1,2.14,3.54,3.54,0,0,1-2.52.9,3.35,3.35,0,0,1-2.64-1.07,2.73,2.73,0,0,1-.76-1.86,2.79,2.79,0,0,1,.53-1.57,7.8,7.8,0,0,1,1.84-1.72,8.22,8.22,0,0,1-1.83-1.86,2.91,2.91,0,0,1-.41-1.46,2.65,2.65,0,0,1,.9-2A3.34,3.34,0,0,1,363.2,288.71Zm9,0a3.13,3.13,0,0,1,2.46,1.4,7.37,7.37,0,0,1,1.36,4.69,9.27,9.27,0,0,1-.6,3.53,4.62,4.62,0,0,1-1.52,2.1,3.12,3.12,0,0,1-1.79.66,3.29,3.29,0,0,1-2.84-2,8.15,8.15,0,0,1-1-4.08,9.07,9.07,0,0,1,.62-3.51,4.88,4.88,0,0,1,1.63-2.2A2.79,2.79,0,0,1,372.24,288.71Zm-9,.51a2.06,2.06,0,0,0-1.46.52,1.62,1.62,0,0,0-.56,1.21,2.09,2.09,0,0,0,.23.92,3.5,3.5,0,0,0,.67.87l1.44,1.19a6,6,0,0,0,1.33-1.5,2.63,2.63,0,0,0,.28-1.24,2,2,0,0,0-.51-1.45A2,2,0,0,0,363.22,289.22Zm-54.71.07a1.37,1.37,0,0,0-1.06.54,4.44,4.44,0,0,0-.87,2.29,21.61,21.61,0,0,0-.22,3.09,11.26,11.26,0,0,0,.6,4c.34.88.83,1.31,1.5,1.31a1.58,1.58,0,0,0,1-.42,2.69,2.69,0,0,0,.77-1.43,17.31,17.31,0,0,0,.41-4.26,11.79,11.79,0,0,0-.42-3.41,3,3,0,0,0-.82-1.43A1.36,1.36,0,0,0,308.51,289.29Zm13.56,0a1.37,1.37,0,0,0-1.06.54,4.44,4.44,0,0,0-.87,2.29,21.61,21.61,0,0,0-.22,3.09,11.26,11.26,0,0,0,.6,4c.34.88.83,1.31,1.5,1.31a1.58,1.58,0,0,0,1-.42,2.69,2.69,0,0,0,.77-1.43,17.31,17.31,0,0,0,.41-4.26,11.79,11.79,0,0,0-.42-3.41,3,3,0,0,0-.82-1.43A1.36,1.36,0,0,0,322.07,289.29Zm13.56,0a1.37,1.37,0,0,0-1.06.54,4.44,4.44,0,0,0-.87,2.29,21.61,21.61,0,0,0-.22,3.09,11.26,11.26,0,0,0,.6,4c.34.88.83,1.31,1.5,1.31a1.58,1.58,0,0,0,1-.42,2.69,2.69,0,0,0,.77-1.43,17.31,17.31,0,0,0,.41-4.26,11.79,11.79,0,0,0-.42-3.41,3,3,0,0,0-.82-1.43A1.36,1.36,0,0,0,335.63,289.29Zm13.56,0a1.37,1.37,0,0,0-1.06.54,4.44,4.44,0,0,0-.87,2.29,21.61,21.61,0,0,0-.22,3.09,11.26,11.26,0,0,0,.6,4c.34.88.83,1.31,1.5,1.31a1.58,1.58,0,0,0,1-.42,2.69,2.69,0,0,0,.77-1.43,17.31,17.31,0,0,0,.41-4.26,11.79,11.79,0,0,0-.42-3.41,3,3,0,0,0-.82-1.43A1.36,1.36,0,0,0,349.19,289.29Zm23,0a1.37,1.37,0,0,0-1.06.54,4.44,4.44,0,0,0-.87,2.29,21.61,21.61,0,0,0-.22,3.09,11.26,11.26,0,0,0,.6,4c.34.88.83,1.31,1.5,1.31a1.58,1.58,0,0,0,1-.42,2.69,2.69,0,0,0,.77-1.43,17.31,17.31,0,0,0,.41-4.26,11.79,11.79,0,0,0-.42-3.41,3,3,0,0,0-.82-1.43A1.36,1.36,0,0,0,372.23,289.29Zm-16,3.29a1,1,0,1,1-.69.28A.94.94,0,0,1,356.2,292.58Zm6.37,2.63a4,4,0,0,0-1.08,1.34,3.44,3.44,0,0,0-.35,1.57,2.55,2.55,0,0,0,.62,1.81,2,2,0,0,0,1.57.68,2.19,2.19,0,0,0,1.53-.53,1.74,1.74,0,0,0,.57-1.31,1.93,1.93,0,0,0-.34-1.13A12.24,12.24,0,0,0,362.57,295.21Zm-6.38,4a.94.94,0,0,1,.69.29,1,1,0,0,1,.29.7,1,1,0,0,1-2,0,1,1,0,0,1,.29-.7A.94.94,0,0,1,356.19,299.16Zm-41,0a1,1,0,0,1,.7.29,1,1,0,0,1,.28.69,1,1,0,1,1-1-1Zm13.56,0a1,1,0,0,1,.7.29,1,1,0,0,1,.28.69,1,1,0,1,1-1-1Zm13.56,0a1,1,0,0,1,.7.29,1,1,0,0,1,.28.69,1,1,0,1,1-1-1Z" transform="translate(-68.52 -53.4)"/><ellipse class="cls-7" cx="499.26" cy="238.44" rx="59.76" ry="38.94"/><path class="cls-5" d="M569.73,275.1a.89.89,0,0,1,.89.89.89.89,0,0,1-.26.63.82.82,0,0,1-.63.26.89.89,0,0,1-.89-.89.82.82,0,0,1,.26-.63A.86.86,0,0,1,569.73,275.1Zm-24.8.58h3.23l7.29,8.94v-6.87a2.43,2.43,0,0,0-.25-1.38,1.33,1.33,0,0,0-1-.36h-.41v-.33h4.15V276h-.42a1.23,1.23,0,0,0-1.08.45,2.7,2.7,0,0,0-.19,1.29v10h-.32l-7.85-9.6v7.34a2.51,2.51,0,0,0,.23,1.37,1.32,1.32,0,0,0,1,.37h.42v.33h-4.15v-.33H546a1.23,1.23,0,0,0,1.08-.45,2.7,2.7,0,0,0,.19-1.29v-8.29a6,6,0,0,0-.78-.8,3.74,3.74,0,0,0-.79-.36,3,3,0,0,0-.77-.07Zm17.59,3.63a3.52,3.52,0,0,1,2,.56h1.71a2.9,2.9,0,0,1,.44,0,.18.18,0,0,1,.09.08.6.6,0,0,1,0,.28.78.78,0,0,1,0,.32s0,.05-.09.07a2.9,2.9,0,0,1-.44,0h-1.05a2.56,2.56,0,0,1,.49,1.62,2.53,2.53,0,0,1-.86,1.93,3.26,3.26,0,0,1-2.31.8,4.4,4.4,0,0,1-1.22-.18,2.3,2.3,0,0,0-.52.58,1,1,0,0,0-.14.43.4.4,0,0,0,.15.29,1,1,0,0,0,.56.2,10.68,10.68,0,0,0,1.23.06,22.28,22.28,0,0,1,2.35.13,2.2,2.2,0,0,1,1.3.6,1.66,1.66,0,0,1,.49,1.22,2.54,2.54,0,0,1-.93,1.86,5,5,0,0,1-3.58,1.28,5.1,5.1,0,0,1-2.86-.76,1.19,1.19,0,0,1-.66-.92.92.92,0,0,1,.1-.42,4.88,4.88,0,0,1,.61-.9c0-.06.34-.37.9-1a2.84,2.84,0,0,1-.65-.49.75.75,0,0,1-.19-.49,1.55,1.55,0,0,1,.25-.72,6.35,6.35,0,0,1,1.16-1.17,2.65,2.65,0,0,1-1.53-2.43,2.76,2.76,0,0,1,.9-2.06A3.22,3.22,0,0,1,562.52,279.31Zm7.56,0h.38v6.47a3.11,3.11,0,0,0,.11,1,.8.8,0,0,0,.33.37,1.74,1.74,0,0,0,.78.12v.32h-3.91v-.32a1.9,1.9,0,0,0,.79-.11.78.78,0,0,0,.33-.38,3.15,3.15,0,0,0,.11-1v-3.1a10.06,10.06,0,0,0-.08-1.7.65.65,0,0,0-.19-.39.57.57,0,0,0-.36-.11,1.76,1.76,0,0,0-.6.13l-.12-.32Zm4.61,0h.38V281a3.82,3.82,0,0,1,2.7-1.71,1.91,1.91,0,0,1,1.13.33,2.19,2.19,0,0,1,.76,1.09,5,5,0,0,1,.19,1.61v3.44a2.73,2.73,0,0,0,.13,1,.73.73,0,0,0,.31.34,1.79,1.79,0,0,0,.79.12v.32h-4v-.32h.17a1.4,1.4,0,0,0,.79-.17.87.87,0,0,0,.31-.51,5.84,5.84,0,0,0,0-.82v-3.3a3.34,3.34,0,0,0-.28-1.59,1,1,0,0,0-1-.5,2.91,2.91,0,0,0-2.09,1.14v4.25a2.87,2.87,0,0,0,.1,1,.77.77,0,0,0,.34.37,2,2,0,0,0,.87.12v.32h-4v-.32h.18a1,1,0,0,0,.83-.31,2.34,2.34,0,0,0,.21-1.19v-3a14.28,14.28,0,0,0-.06-1.77.82.82,0,0,0-.21-.43.57.57,0,0,0-.36-.11,1.66,1.66,0,0,0-.59.13l-.13-.32Zm6.71.24h3.79v.32a.76.76,0,0,0-.51.13.42.42,0,0,0-.14.32,1.33,1.33,0,0,0,.31.65l.29.44.57.91.66-.91a3.17,3.17,0,0,0,.63-1.1.39.39,0,0,0-.15-.31.76.76,0,0,0-.48-.13v-.32h2.72v.32a1.51,1.51,0,0,0-.75.24,6.19,6.19,0,0,0-1.17,1.3l-1.1,1.47,2,2.88a5.77,5.77,0,0,0,1.06,1.28,1.62,1.62,0,0,0,.81.24v.32h-3.79v-.32a1,1,0,0,0,.61-.17.4.4,0,0,0,.17-.33,3.26,3.26,0,0,0-.56-1L585.19,284l-1.29,1.72a3.33,3.33,0,0,0-.6.95.47.47,0,0,0,.2.38.9.9,0,0,0,.59.19v.32h-2.63v-.32a1.2,1.2,0,0,0,.56-.22,8.24,8.24,0,0,0,1.12-1.3l1.69-2.24-1.53-2.21a5,5,0,0,0-1-1.2,1.53,1.53,0,0,0-.89-.24Zm-19,.18a1.35,1.35,0,0,0-1.09.52,2.45,2.45,0,0,0-.44,1.59,3.4,3.4,0,0,0,.6,2.15,1.4,1.4,0,0,0,1.16.58,1.38,1.38,0,0,0,1.1-.5,2.39,2.39,0,0,0,.43-1.57,3.56,3.56,0,0,0-.61-2.19A1.41,1.41,0,0,0,562.37,279.73Zm-1.62,7.87a4.8,4.8,0,0,0-.62.83,1.54,1.54,0,0,0-.21.72.88.88,0,0,0,.51.73,4.77,4.77,0,0,0,2.54.55,3.94,3.94,0,0,0,2.33-.56,1.53,1.53,0,0,0,.75-1.19.66.66,0,0,0-.45-.65,5.7,5.7,0,0,0-1.81-.23A27.55,27.55,0,0,1,560.75,287.6Z" transform="translate(-68.52 -53.4)"/><path class="cls-6" d="M569.73,275.1a.89.89,0,0,1,.89.89.89.89,0,0,1-.26.63.82.82,0,0,1-.63.26.89.89,0,0,1-.89-.89.82.82,0,0,1,.26-.63A.86.86,0,0,1,569.73,275.1Zm-24.8.58h3.23l7.29,8.94v-6.87a2.43,2.43,0,0,0-.25-1.38,1.33,1.33,0,0,0-1-.36h-.41v-.33h4.15V276h-.42a1.23,1.23,0,0,0-1.08.45,2.7,2.7,0,0,0-.19,1.29v10h-.32l-7.85-9.6v7.34a2.51,2.51,0,0,0,.23,1.37,1.32,1.32,0,0,0,1,.37h.42v.33h-4.15v-.33H546a1.23,1.23,0,0,0,1.08-.45,2.7,2.7,0,0,0,.19-1.29v-8.29a6,6,0,0,0-.78-.8,3.74,3.74,0,0,0-.79-.36,3,3,0,0,0-.77-.07Zm17.59,3.63a3.52,3.52,0,0,1,2,.56h1.71a2.9,2.9,0,0,1,.44,0,.18.18,0,0,1,.09.08.6.6,0,0,1,0,.28.78.78,0,0,1,0,.32s0,.05-.09.07a2.9,2.9,0,0,1-.44,0h-1.05a2.56,2.56,0,0,1,.49,1.62,2.53,2.53,0,0,1-.86,1.93,3.26,3.26,0,0,1-2.31.8,4.4,4.4,0,0,1-1.22-.18,2.3,2.3,0,0,0-.52.58,1,1,0,0,0-.14.43.4.4,0,0,0,.15.29,1,1,0,0,0,.56.2,10.68,10.68,0,0,0,1.23.06,22.28,22.28,0,0,1,2.35.13,2.2,2.2,0,0,1,1.3.6,1.66,1.66,0,0,1,.49,1.22,2.54,2.54,0,0,1-.93,1.86,5,5,0,0,1-3.58,1.28,5.1,5.1,0,0,1-2.86-.76,1.19,1.19,0,0,1-.66-.92.92.92,0,0,1,.1-.42,4.88,4.88,0,0,1,.61-.9c0-.06.34-.37.9-1a2.84,2.84,0,0,1-.65-.49.75.75,0,0,1-.19-.49,1.55,1.55,0,0,1,.25-.72,6.35,6.35,0,0,1,1.16-1.17,2.65,2.65,0,0,1-1.53-2.43,2.76,2.76,0,0,1,.9-2.06A3.22,3.22,0,0,1,562.52,279.31Zm7.56,0h.38v6.47a3.11,3.11,0,0,0,.11,1,.8.8,0,0,0,.33.37,1.74,1.74,0,0,0,.78.12v.32h-3.91v-.32a1.9,1.9,0,0,0,.79-.11.78.78,0,0,0,.33-.38,3.15,3.15,0,0,0,.11-1v-3.1a10.06,10.06,0,0,0-.08-1.7.65.65,0,0,0-.19-.39.57.57,0,0,0-.36-.11,1.76,1.76,0,0,0-.6.13l-.12-.32Zm4.61,0h.38V281a3.82,3.82,0,0,1,2.7-1.71,1.91,1.91,0,0,1,1.13.33,2.19,2.19,0,0,1,.76,1.09,5,5,0,0,1,.19,1.61v3.44a2.73,2.73,0,0,0,.13,1,.73.73,0,0,0,.31.34,1.79,1.79,0,0,0,.79.12v.32h-4v-.32h.17a1.4,1.4,0,0,0,.79-.17.87.87,0,0,0,.31-.51,5.84,5.84,0,0,0,0-.82v-3.3a3.34,3.34,0,0,0-.28-1.59,1,1,0,0,0-1-.5,2.91,2.91,0,0,0-2.09,1.14v4.25a2.87,2.87,0,0,0,.1,1,.77.77,0,0,0,.34.37,2,2,0,0,0,.87.12v.32h-4v-.32h.18a1,1,0,0,0,.83-.31,2.34,2.34,0,0,0,.21-1.19v-3a14.28,14.28,0,0,0-.06-1.77.82.82,0,0,0-.21-.43.57.57,0,0,0-.36-.11,1.66,1.66,0,0,0-.59.13l-.13-.32Zm6.71.24h3.79v.32a.76.76,0,0,0-.51.13.42.42,0,0,0-.14.32,1.33,1.33,0,0,0,.31.65l.29.44.57.91.66-.91a3.17,3.17,0,0,0,.63-1.1.39.39,0,0,0-.15-.31.76.76,0,0,0-.48-.13v-.32h2.72v.32a1.51,1.51,0,0,0-.75.24,6.19,6.19,0,0,0-1.17,1.3l-1.1,1.47,2,2.88a5.77,5.77,0,0,0,1.06,1.28,1.62,1.62,0,0,0,.81.24v.32h-3.79v-.32a1,1,0,0,0,.61-.17.4.4,0,0,0,.17-.33,3.26,3.26,0,0,0-.56-1L585.19,284l-1.29,1.72a3.33,3.33,0,0,0-.6.95.47.47,0,0,0,.2.38.9.9,0,0,0,.59.19v.32h-2.63v-.32a1.2,1.2,0,0,0,.56-.22,8.24,8.24,0,0,0,1.12-1.3l1.69-2.24-1.53-2.21a5,5,0,0,0-1-1.2,1.53,1.53,0,0,0-.89-.24Zm-19,.18a1.35,1.35,0,0,0-1.09.52,2.45,2.45,0,0,0-.44,1.59,3.4,3.4,0,0,0,.6,2.15,1.4,1.4,0,0,0,1.16.58,1.38,1.38,0,0,0,1.1-.5,2.39,2.39,0,0,0,.43-1.57,3.56,3.56,0,0,0-.61-2.19A1.41,1.41,0,0,0,562.37,279.73Zm-1.62,7.87a4.8,4.8,0,0,0-.62.83,1.54,1.54,0,0,0-.21.72.88.88,0,0,0,.51.73,4.77,4.77,0,0,0,2.54.55,3.94,3.94,0,0,0,2.33-.56,1.53,1.53,0,0,0,.75-1.19.66.66,0,0,0-.45-.65,5.7,5.7,0,0,0-1.81-.23A27.55,27.55,0,0,1,560.75,287.6Z" transform="translate(-68.52 -53.4)"/><path class="cls-5" d="M548.82,297a5,5,0,0,1,2,.46,2,2,0,0,0,.69.22.53.53,0,0,0,.38-.13,1.19,1.19,0,0,0,.23-.55h.33v4.12h-.33a4.91,4.91,0,0,0-.57-1.89,3,3,0,0,0-1.16-1.12,3.28,3.28,0,0,0-1.57-.41,2.15,2.15,0,0,0-1.51.56,1.67,1.67,0,0,0-.59,1.27,1.51,1.51,0,0,0,.37,1,9.75,9.75,0,0,0,2.6,1.76,18.44,18.44,0,0,1,2.28,1.38,3.35,3.35,0,0,1,.94,1.12,3,3,0,0,1,.33,1.37,3.08,3.08,0,0,1-1,2.33,3.82,3.82,0,0,1-2.71,1,6,6,0,0,1-1-.08,9,9,0,0,1-1.13-.32,5.35,5.35,0,0,0-1.09-.28.44.44,0,0,0-.34.14,1,1,0,0,0-.19.54h-.33v-4.09h.33a5.61,5.61,0,0,0,.61,1.92,2.92,2.92,0,0,0,1.18,1.06,3.74,3.74,0,0,0,1.75.43,2.49,2.49,0,0,0,1.74-.59,1.79,1.79,0,0,0,.63-1.37,1.85,1.85,0,0,0-.24-.88,2.65,2.65,0,0,0-.75-.84c-.23-.17-.85-.55-1.87-1.12a18,18,0,0,1-2.18-1.37,3.65,3.65,0,0,1-1-1.12,2.81,2.81,0,0,1-.33-1.35,3,3,0,0,1,1-2.22A3.55,3.55,0,0,1,548.82,297Zm9.73,3.89a3,3,0,0,1,2.22.89,3.28,3.28,0,0,1,.87,2.39h-5.56A4.1,4.1,0,0,0,557,307a2.65,2.65,0,0,0,2.06,1,2.24,2.24,0,0,0,1.38-.43,3.2,3.2,0,0,0,1-1.49l.27.17a4.18,4.18,0,0,1-1.07,2.2,2.88,2.88,0,0,1-2.22,1,3.24,3.24,0,0,1-2.49-1.13,4.34,4.34,0,0,1-1-3,4.56,4.56,0,0,1,1.06-3.22A3.46,3.46,0,0,1,558.55,300.9Zm23,0a3,3,0,0,1,2.22.89,3.28,3.28,0,0,1,.87,2.39h-5.56A4.1,4.1,0,0,0,580,307a2.65,2.65,0,0,0,2.06,1,2.24,2.24,0,0,0,1.38-.43,3.2,3.2,0,0,0,1-1.49l.27.17a4.18,4.18,0,0,1-1.07,2.2,2.88,2.88,0,0,1-2.22,1,3.24,3.24,0,0,1-2.49-1.13,4.34,4.34,0,0,1-1-3,4.56,4.56,0,0,1,1.06-3.22A3.46,3.46,0,0,1,581.59,300.9Zm-16.84,0h.37v1.81c.67-1.21,1.37-1.81,2.08-1.81a1.17,1.17,0,0,1,.8.29.92.92,0,0,1,.31.69.79.79,0,0,1-.23.58.74.74,0,0,1-.54.23,1.14,1.14,0,0,1-.69-.3,1.18,1.18,0,0,0-.57-.3.55.55,0,0,0-.34.17,4.11,4.11,0,0,0-.82,1.19v3.86a2.42,2.42,0,0,0,.17,1,.84.84,0,0,0,.4.39,1.74,1.74,0,0,0,.84.16v.32h-4.12v-.32a1.69,1.69,0,0,0,.91-.19.75.75,0,0,0,.31-.45,4.57,4.57,0,0,0,0-.85v-3.12a12.45,12.45,0,0,0-.06-1.68.57.57,0,0,0-.21-.39.6.6,0,0,0-.38-.12,1.63,1.63,0,0,0-.61.13l-.09-.32Zm23,0h.37v1.81c.67-1.21,1.37-1.81,2.08-1.81a1.17,1.17,0,0,1,.8.29.92.92,0,0,1,.31.69.79.79,0,0,1-.23.58.74.74,0,0,1-.54.23,1.14,1.14,0,0,1-.69-.3,1.18,1.18,0,0,0-.57-.3.55.55,0,0,0-.34.17,4.11,4.11,0,0,0-.82,1.19v3.86a2.42,2.42,0,0,0,.17,1,.84.84,0,0,0,.4.39,1.74,1.74,0,0,0,.84.16v.32h-4.12v-.32a1.69,1.69,0,0,0,.91-.19.75.75,0,0,0,.31-.45,4.57,4.57,0,0,0,0-.85v-3.12a12.45,12.45,0,0,0-.06-1.68.57.57,0,0,0-.21-.39.6.6,0,0,0-.38-.12,1.63,1.63,0,0,0-.61.13l-.09-.32Zm-19.44.24h3.79v.32h-.25a.76.76,0,0,0-.52.17.58.58,0,0,0-.18.45,1.79,1.79,0,0,0,.19.73l1.87,4.44,1.88-4.61a2.32,2.32,0,0,0,.2-.75.27.27,0,0,0-.07-.2.45.45,0,0,0-.25-.18,2.45,2.45,0,0,0-.6,0v-.32H577v.32a1.21,1.21,0,0,0-.64.19,2.22,2.22,0,0,0-.55.88l-2.86,6.9h-.36l-2.87-6.79a2.54,2.54,0,0,0-.37-.68,1.6,1.6,0,0,0-.45-.35,2.37,2.37,0,0,0-.59-.15Zm-10.29.38a1.81,1.81,0,0,0-1.31.56,2.48,2.48,0,0,0-.67,1.58h3.73a3.51,3.51,0,0,0-.19-1.09,1.7,1.7,0,0,0-.65-.77A1.65,1.65,0,0,0,558.06,301.53Zm23,0a1.81,1.81,0,0,0-1.31.56,2.48,2.48,0,0,0-.67,1.58h3.73a3.51,3.51,0,0,0-.19-1.09,1.7,1.7,0,0,0-.65-.77A1.65,1.65,0,0,0,581.1,301.53Z" transform="translate(-68.52 -53.4)"/><path class="cls-6" d="M548.82,297a5,5,0,0,1,2,.46,2,2,0,0,0,.69.22.53.53,0,0,0,.38-.13,1.19,1.19,0,0,0,.23-.55h.33v4.12h-.33a4.91,4.91,0,0,0-.57-1.89,3,3,0,0,0-1.16-1.12,3.28,3.28,0,0,0-1.57-.41,2.15,2.15,0,0,0-1.51.56,1.67,1.67,0,0,0-.59,1.27,1.51,1.51,0,0,0,.37,1,9.75,9.75,0,0,0,2.6,1.76,18.44,18.44,0,0,1,2.28,1.38,3.35,3.35,0,0,1,.94,1.12,3,3,0,0,1,.33,1.37,3.08,3.08,0,0,1-1,2.33,3.82,3.82,0,0,1-2.71,1,6,6,0,0,1-1-.08,9,9,0,0,1-1.13-.32,5.35,5.35,0,0,0-1.09-.28.44.44,0,0,0-.34.14,1,1,0,0,0-.19.54h-.33v-4.09h.33a5.61,5.61,0,0,0,.61,1.92,2.92,2.92,0,0,0,1.18,1.06,3.74,3.74,0,0,0,1.75.43,2.49,2.49,0,0,0,1.74-.59,1.79,1.79,0,0,0,.63-1.37,1.85,1.85,0,0,0-.24-.88,2.65,2.65,0,0,0-.75-.84c-.23-.17-.85-.55-1.87-1.12a18,18,0,0,1-2.18-1.37,3.65,3.65,0,0,1-1-1.12,2.81,2.81,0,0,1-.33-1.35,3,3,0,0,1,1-2.22A3.55,3.55,0,0,1,548.82,297Zm9.73,3.89a3,3,0,0,1,2.22.89,3.28,3.28,0,0,1,.87,2.39h-5.56A4.1,4.1,0,0,0,557,307a2.65,2.65,0,0,0,2.06,1,2.24,2.24,0,0,0,1.38-.43,3.2,3.2,0,0,0,1-1.49l.27.17a4.18,4.18,0,0,1-1.07,2.2,2.88,2.88,0,0,1-2.22,1,3.24,3.24,0,0,1-2.49-1.13,4.34,4.34,0,0,1-1-3,4.56,4.56,0,0,1,1.06-3.22A3.46,3.46,0,0,1,558.55,300.9Zm23,0a3,3,0,0,1,2.22.89,3.28,3.28,0,0,1,.87,2.39h-5.56A4.1,4.1,0,0,0,580,307a2.65,2.65,0,0,0,2.06,1,2.24,2.24,0,0,0,1.38-.43,3.2,3.2,0,0,0,1-1.49l.27.17a4.18,4.18,0,0,1-1.07,2.2,2.88,2.88,0,0,1-2.22,1,3.24,3.24,0,0,1-2.49-1.13,4.34,4.34,0,0,1-1-3,4.56,4.56,0,0,1,1.06-3.22A3.46,3.46,0,0,1,581.59,300.9Zm-16.84,0h.37v1.81c.67-1.21,1.37-1.81,2.08-1.81a1.17,1.17,0,0,1,.8.29.92.92,0,0,1,.31.69.79.79,0,0,1-.23.58.74.74,0,0,1-.54.23,1.14,1.14,0,0,1-.69-.3,1.18,1.18,0,0,0-.57-.3.55.55,0,0,0-.34.17,4.11,4.11,0,0,0-.82,1.19v3.86a2.42,2.42,0,0,0,.17,1,.84.84,0,0,0,.4.39,1.74,1.74,0,0,0,.84.16v.32h-4.12v-.32a1.69,1.69,0,0,0,.91-.19.75.75,0,0,0,.31-.45,4.57,4.57,0,0,0,0-.85v-3.12a12.45,12.45,0,0,0-.06-1.68.57.57,0,0,0-.21-.39.6.6,0,0,0-.38-.12,1.63,1.63,0,0,0-.61.13l-.09-.32Zm23,0h.37v1.81c.67-1.21,1.37-1.81,2.08-1.81a1.17,1.17,0,0,1,.8.29.92.92,0,0,1,.31.69.79.79,0,0,1-.23.58.74.74,0,0,1-.54.23,1.14,1.14,0,0,1-.69-.3,1.18,1.18,0,0,0-.57-.3.55.55,0,0,0-.34.17,4.11,4.11,0,0,0-.82,1.19v3.86a2.42,2.42,0,0,0,.17,1,.84.84,0,0,0,.4.39,1.74,1.74,0,0,0,.84.16v.32h-4.12v-.32a1.69,1.69,0,0,0,.91-.19.75.75,0,0,0,.31-.45,4.57,4.57,0,0,0,0-.85v-3.12a12.45,12.45,0,0,0-.06-1.68.57.57,0,0,0-.21-.39.6.6,0,0,0-.38-.12,1.63,1.63,0,0,0-.61.13l-.09-.32Zm-19.44.24h3.79v.32h-.25a.76.76,0,0,0-.52.17.58.58,0,0,0-.18.45,1.79,1.79,0,0,0,.19.73l1.87,4.44,1.88-4.61a2.32,2.32,0,0,0,.2-.75.27.27,0,0,0-.07-.2.45.45,0,0,0-.25-.18,2.45,2.45,0,0,0-.6,0v-.32H577v.32a1.21,1.21,0,0,0-.64.19,2.22,2.22,0,0,0-.55.88l-2.86,6.9h-.36l-2.87-6.79a2.54,2.54,0,0,0-.37-.68,1.6,1.6,0,0,0-.45-.35,2.37,2.37,0,0,0-.59-.15Zm-10.29.38a1.81,1.81,0,0,0-1.31.56,2.48,2.48,0,0,0-.67,1.58h3.73a3.51,3.51,0,0,0-.19-1.09,1.7,1.7,0,0,0-.65-.77A1.65,1.65,0,0,0,558.06,301.53Zm23,0a1.81,1.81,0,0,0-1.31.56,2.48,2.48,0,0,0-.67,1.58h3.73a3.51,3.51,0,0,0-.19-1.09,1.7,1.7,0,0,0-.65-.77A1.65,1.65,0,0,0,581.1,301.53Z" transform="translate(-68.52 -53.4)"/><ellipse class="cls-7" cx="502.86" cy="364.32" rx="59.76" ry="38.94"/><path class="cls-5" d="M580.85,411.74h.4v5.83a3.22,3.22,0,0,1,2.52-1.62,2.78,2.78,0,0,1,2.16,1.05,4.26,4.26,0,0,1,.93,2.9,4.46,4.46,0,0,1-1.43,3.45,3.92,3.92,0,0,1-2.72,1.13,4.28,4.28,0,0,1-1.43-.26,6.51,6.51,0,0,1-1.48-.76v-8.34a10.86,10.86,0,0,0-.07-1.69.75.75,0,0,0-.2-.43.53.53,0,0,0-.36-.11,1.67,1.67,0,0,0-.61.14l-.12-.31Zm-25.65.58h4.41v.32h-.21a1.06,1.06,0,0,0-.71.21.63.63,0,0,0-.25.51,6,6,0,0,0,.39,1.42l2.34,6.68,2-5.68-.35-1-.28-.8a4.38,4.38,0,0,0-.41-.78,1.11,1.11,0,0,0-.29-.28,1.69,1.69,0,0,0-.44-.23,2.09,2.09,0,0,0-.52-.05v-.32h4.64v.32h-.32a1,1,0,0,0-.72.21.75.75,0,0,0-.23.57,5.53,5.53,0,0,0,.4,1.57l2.28,6.47,2.27-6.56a5.52,5.52,0,0,0,.39-1.51.6.6,0,0,0-.13-.38.66.66,0,0,0-.32-.25,2.6,2.6,0,0,0-.87-.12v-.32h3.56v.32a1.55,1.55,0,0,0-.76.17,1.63,1.63,0,0,0-.55.62,10.22,10.22,0,0,0-.55,1.47l-3.33,9.61h-.35l-2.71-7.62-2.7,7.62h-.32l-3.54-9.9c-.26-.74-.43-1.18-.5-1.31a1.22,1.22,0,0,0-.48-.5,1.73,1.73,0,0,0-.82-.16Zm19.63,3.62a3,3,0,0,1,2.22.89,3.26,3.26,0,0,1,.87,2.38h-5.56a4.11,4.11,0,0,0,.87,2.82,2.64,2.64,0,0,0,2.06,1,2.25,2.25,0,0,0,1.38-.44,3.28,3.28,0,0,0,1-1.49l.27.18a4.18,4.18,0,0,1-1.07,2.19,2.87,2.87,0,0,1-2.23,1,3.26,3.26,0,0,1-2.48-1.13,4.32,4.32,0,0,1-1-3,4.58,4.58,0,0,1,1.06-3.22A3.44,3.44,0,0,1,574.83,415.94Zm-.5.62a1.8,1.8,0,0,0-1.3.57,2.4,2.4,0,0,0-.67,1.57h3.72a3.71,3.71,0,0,0-.18-1.09,1.83,1.83,0,0,0-.66-.77A1.62,1.62,0,0,0,574.33,416.56Zm8.75.63a2,2,0,0,0-.93.24,3.94,3.94,0,0,0-.9.7V423a3.46,3.46,0,0,0,.93.66,2.27,2.27,0,0,0,1,.23,2,2,0,0,0,1.49-.88,4.09,4.09,0,0,0,.69-2.56,3.65,3.65,0,0,0-.69-2.38A2,2,0,0,0,583.08,417.19Z" transform="translate(-68.52 -53.4)"/><path class="cls-6" d="M580.85,411.74h.4v5.83a3.22,3.22,0,0,1,2.52-1.62,2.78,2.78,0,0,1,2.16,1.05,4.26,4.26,0,0,1,.93,2.9,4.46,4.46,0,0,1-1.43,3.45,3.92,3.92,0,0,1-2.72,1.13,4.28,4.28,0,0,1-1.43-.26,6.51,6.51,0,0,1-1.48-.76v-8.34a10.86,10.86,0,0,0-.07-1.69.75.75,0,0,0-.2-.43.53.53,0,0,0-.36-.11,1.67,1.67,0,0,0-.61.14l-.12-.31Zm-25.65.58h4.41v.32h-.21a1.06,1.06,0,0,0-.71.21.63.63,0,0,0-.25.51,6,6,0,0,0,.39,1.42l2.34,6.68,2-5.68-.35-1-.28-.8a4.38,4.38,0,0,0-.41-.78,1.11,1.11,0,0,0-.29-.28,1.69,1.69,0,0,0-.44-.23,2.09,2.09,0,0,0-.52-.05v-.32h4.64v.32h-.32a1,1,0,0,0-.72.21.75.75,0,0,0-.23.57,5.53,5.53,0,0,0,.4,1.57l2.28,6.47,2.27-6.56a5.52,5.52,0,0,0,.39-1.51.6.6,0,0,0-.13-.38.66.66,0,0,0-.32-.25,2.6,2.6,0,0,0-.87-.12v-.32h3.56v.32a1.55,1.55,0,0,0-.76.17,1.63,1.63,0,0,0-.55.62,10.22,10.22,0,0,0-.55,1.47l-3.33,9.61h-.35l-2.71-7.62-2.7,7.62h-.32l-3.54-9.9c-.26-.74-.43-1.18-.5-1.31a1.22,1.22,0,0,0-.48-.5,1.73,1.73,0,0,0-.82-.16Zm19.63,3.62a3,3,0,0,1,2.22.89,3.26,3.26,0,0,1,.87,2.38h-5.56a4.11,4.11,0,0,0,.87,2.82,2.64,2.64,0,0,0,2.06,1,2.25,2.25,0,0,0,1.38-.44,3.28,3.28,0,0,0,1-1.49l.27.18a4.18,4.18,0,0,1-1.07,2.19,2.87,2.87,0,0,1-2.23,1,3.26,3.26,0,0,1-2.48-1.13,4.32,4.32,0,0,1-1-3,4.58,4.58,0,0,1,1.06-3.22A3.44,3.44,0,0,1,574.83,415.94Zm-.5.62a1.8,1.8,0,0,0-1.3.57,2.4,2.4,0,0,0-.67,1.57h3.72a3.71,3.71,0,0,0-.18-1.09,1.83,1.83,0,0,0-.66-.77A1.62,1.62,0,0,0,574.33,416.56Zm8.75.63a2,2,0,0,0-.93.24,3.94,3.94,0,0,0-.9.7V423a3.46,3.46,0,0,0,.93.66,2.27,2.27,0,0,0,1,.23,2,2,0,0,0,1.49-.88,4.09,4.09,0,0,0,.69-2.56,3.65,3.65,0,0,0-.69-2.38A2,2,0,0,0,583.08,417.19Z" transform="translate(-68.52 -53.4)"/><line class="cls-10" x1="326.1" y1="115.1" x2="439.52" y2="112.62"/><line class="cls-10" x1="326.1" y1="240.98" x2="439.52" y2="238.5"/><rect class="cls-8" x="240.12" y="168" width="108.24" height="19.92"/><rect class="cls-9" x="240.12" y="168" width="108.24" height="19.92"/><path class="cls-5" d="M320.85,225.79h.29v10.07a5,5,0,0,0,.09,1.25.62.62,0,0,0,.34.37,2.91,2.91,0,0,0,1.07.15V238h-4.48v-.33a3.14,3.14,0,0,0,1.09-.14.74.74,0,0,0,.35-.35,4.92,4.92,0,0,0,.09-1.28v-6.44a9.33,9.33,0,0,0-.09-1.67.71.71,0,0,0-.22-.41.59.59,0,0,0-.39-.13,2.37,2.37,0,0,0-.91.27l-.13-.27Zm8.12,0a3.31,3.31,0,0,1,2.42.94,2.94,2.94,0,0,1,1,2.19,4.25,4.25,0,0,1-.43,1.81,11.66,11.66,0,0,1-2.11,3c-1.45,1.59-2.37,2.55-2.73,2.88h3.11a8,8,0,0,0,1.33-.07,1.64,1.64,0,0,0,.69-.29,1.71,1.71,0,0,0,.54-.61h.33l-.84,2.3h-7v-.33A32,32,0,0,0,329.6,233a5.88,5.88,0,0,0,1.26-3.28,2.59,2.59,0,0,0-.69-1.86,2.2,2.2,0,0,0-1.66-.73,2.62,2.62,0,0,0-1.58.51,3,3,0,0,0-1,1.51h-.33a4.11,4.11,0,0,1,1.13-2.5A3.16,3.16,0,0,1,329,225.79Zm23,0a3.13,3.13,0,0,1,2.46,1.4,7.39,7.39,0,0,1,1.36,4.69,9.24,9.24,0,0,1-.6,3.53,4.59,4.59,0,0,1-1.52,2.1,3.12,3.12,0,0,1-1.79.66,3.29,3.29,0,0,1-2.84-2,8.19,8.19,0,0,1-1-4.09,9.07,9.07,0,0,1,.62-3.51,5,5,0,0,1,1.63-2.2A2.77,2.77,0,0,1,351.94,225.79Zm13.56,0a3.13,3.13,0,0,1,2.46,1.4,7.39,7.39,0,0,1,1.36,4.69,9.24,9.24,0,0,1-.6,3.53,4.59,4.59,0,0,1-1.52,2.1,3.12,3.12,0,0,1-1.79.66,3.29,3.29,0,0,1-2.84-2,8.19,8.19,0,0,1-1-4.09,9.07,9.07,0,0,1,.62-3.51,5,5,0,0,1,1.63-2.2A2.77,2.77,0,0,1,365.5,225.79Zm14,0h.29v10.07a5,5,0,0,0,.09,1.25.62.62,0,0,0,.34.37,2.91,2.91,0,0,0,1.07.15V238h-4.48v-.33a3.14,3.14,0,0,0,1.09-.14.74.74,0,0,0,.35-.35,4.92,4.92,0,0,0,.09-1.28v-6.44a9.33,9.33,0,0,0-.09-1.67.71.71,0,0,0-.22-.41.59.59,0,0,0-.39-.13,2.37,2.37,0,0,0-.91.27l-.13-.27Zm13.53,0a3.31,3.31,0,0,1,2.32.79,2.31,2.31,0,0,1,.88,1.78,2.43,2.43,0,0,1-.47,1.36,6.92,6.92,0,0,1-2,1.64,11.15,11.15,0,0,1,2.05,1.88,3.15,3.15,0,0,1,.66,1.89,2.83,2.83,0,0,1-.95,2.15,3.57,3.57,0,0,1-2.52.89,3.38,3.38,0,0,1-2.64-1.06,2.74,2.74,0,0,1-.76-1.87,2.79,2.79,0,0,1,.53-1.57A7.8,7.8,0,0,1,392,232a8,8,0,0,1-1.83-1.86,2.88,2.88,0,0,1-.41-1.46,2.65,2.65,0,0,1,.9-2A3.34,3.34,0,0,1,393.06,225.79Zm9,0a3.13,3.13,0,0,1,2.46,1.4,7.39,7.39,0,0,1,1.36,4.69,9.24,9.24,0,0,1-.6,3.53,4.59,4.59,0,0,1-1.52,2.1,3.12,3.12,0,0,1-1.79.66,3.29,3.29,0,0,1-2.84-2,8.19,8.19,0,0,1-1-4.09,9.07,9.07,0,0,1,.62-3.51,5,5,0,0,1,1.63-2.2A2.77,2.77,0,0,1,402.1,225.79Zm-66.45.25H342v.33l-4,11.83h-1l3.55-10.73h-3.27a3,3,0,0,0-1.42.24,3,3,0,0,0-1.19,1.25l-.25-.1Zm57.43.26a2.1,2.1,0,0,0-1.46.52,1.62,1.62,0,0,0-.56,1.21,2.09,2.09,0,0,0,.23.92,3.71,3.71,0,0,0,.66.87L393.4,231a6.39,6.39,0,0,0,1.33-1.49,2.68,2.68,0,0,0,.28-1.25,1.94,1.94,0,0,0-.52-1.44A1.88,1.88,0,0,0,393.08,226.3Zm-41.15.07a1.4,1.4,0,0,0-1.07.54,4.57,4.57,0,0,0-.86,2.29,21.82,21.82,0,0,0-.22,3.09,11.36,11.36,0,0,0,.6,4c.34.87.83,1.3,1.5,1.3a1.58,1.58,0,0,0,1-.42,2.69,2.69,0,0,0,.77-1.43,17.31,17.31,0,0,0,.41-4.26,11.67,11.67,0,0,0-.42-3.4,3.09,3.09,0,0,0-.82-1.44A1.36,1.36,0,0,0,351.93,226.37Zm13.56,0a1.4,1.4,0,0,0-1.07.54,4.57,4.57,0,0,0-.86,2.29,21.82,21.82,0,0,0-.22,3.09,11.36,11.36,0,0,0,.6,4c.34.87.83,1.3,1.5,1.3a1.58,1.58,0,0,0,1-.42,2.69,2.69,0,0,0,.77-1.43,17.31,17.31,0,0,0,.41-4.26,11.67,11.67,0,0,0-.42-3.4,3.09,3.09,0,0,0-.82-1.44A1.36,1.36,0,0,0,365.49,226.37Zm36.6,0a1.4,1.4,0,0,0-1.07.54,4.57,4.57,0,0,0-.86,2.29,21.82,21.82,0,0,0-.22,3.09,11.36,11.36,0,0,0,.6,4c.34.87.83,1.3,1.5,1.3a1.58,1.58,0,0,0,1-.42,2.69,2.69,0,0,0,.77-1.43,17.31,17.31,0,0,0,.41-4.26,11.67,11.67,0,0,0-.42-3.4,3.09,3.09,0,0,0-.82-1.44A1.36,1.36,0,0,0,402.09,226.37Zm-16,3.29a1,1,0,1,1-.69.29A.94.94,0,0,1,386.06,229.66Zm6.37,2.63a4,4,0,0,0-1.08,1.34,3.47,3.47,0,0,0-.35,1.57,2.55,2.55,0,0,0,.62,1.81,2,2,0,0,0,1.57.68,2.1,2.1,0,0,0,1.52-.53,1.7,1.7,0,0,0,.58-1.3,2.06,2.06,0,0,0-.34-1.14A12.52,12.52,0,0,0,392.43,232.29Zm-6.39,4a1,1,0,0,1,.7.29,1,1,0,0,1,.29.7.94.94,0,0,1-.29.69,1,1,0,0,1-.7.28,1,1,0,0,1-.69-.28.94.94,0,0,1-.28-.69,1,1,0,0,1,1-1Zm-41,0a1,1,0,0,1,.7.29,1,1,0,0,1,.28.69,1,1,0,1,1-1.67-.7A1,1,0,0,1,345.09,236.25Zm13.56,0a1,1,0,0,1,.7.29,1,1,0,0,1,.28.69,1,1,0,1,1-1.67-.7A1,1,0,0,1,358.65,236.25Zm13.56,0a1,1,0,0,1,.7.29,1,1,0,0,1,.28.69,1,1,0,1,1-1.67-.7A1,1,0,0,1,372.21,236.25Z" transform="translate(-68.52 -53.4)"/><path class="cls-6" d="M320.85,225.79h.29v10.07a5,5,0,0,0,.09,1.25.62.62,0,0,0,.34.37,2.91,2.91,0,0,0,1.07.15V238h-4.48v-.33a3.14,3.14,0,0,0,1.09-.14.74.74,0,0,0,.35-.35,4.92,4.92,0,0,0,.09-1.28v-6.44a9.33,9.33,0,0,0-.09-1.67.71.71,0,0,0-.22-.41.59.59,0,0,0-.39-.13,2.37,2.37,0,0,0-.91.27l-.13-.27Zm8.12,0a3.31,3.31,0,0,1,2.42.94,2.94,2.94,0,0,1,1,2.19,4.25,4.25,0,0,1-.43,1.81,11.66,11.66,0,0,1-2.11,3c-1.45,1.59-2.37,2.55-2.73,2.88h3.11a8,8,0,0,0,1.33-.07,1.64,1.64,0,0,0,.69-.29,1.71,1.71,0,0,0,.54-.61h.33l-.84,2.3h-7v-.33A32,32,0,0,0,329.6,233a5.88,5.88,0,0,0,1.26-3.28,2.59,2.59,0,0,0-.69-1.86,2.2,2.2,0,0,0-1.66-.73,2.62,2.62,0,0,0-1.58.51,3,3,0,0,0-1,1.51h-.33a4.11,4.11,0,0,1,1.13-2.5A3.16,3.16,0,0,1,329,225.79Zm23,0a3.13,3.13,0,0,1,2.46,1.4,7.39,7.39,0,0,1,1.36,4.69,9.24,9.24,0,0,1-.6,3.53,4.59,4.59,0,0,1-1.52,2.1,3.12,3.12,0,0,1-1.79.66,3.29,3.29,0,0,1-2.84-2,8.19,8.19,0,0,1-1-4.09,9.07,9.07,0,0,1,.62-3.51,5,5,0,0,1,1.63-2.2A2.77,2.77,0,0,1,351.94,225.79Zm13.56,0a3.13,3.13,0,0,1,2.46,1.4,7.39,7.39,0,0,1,1.36,4.69,9.24,9.24,0,0,1-.6,3.53,4.59,4.59,0,0,1-1.52,2.1,3.12,3.12,0,0,1-1.79.66,3.29,3.29,0,0,1-2.84-2,8.19,8.19,0,0,1-1-4.09,9.07,9.07,0,0,1,.62-3.51,5,5,0,0,1,1.63-2.2A2.77,2.77,0,0,1,365.5,225.79Zm14,0h.29v10.07a5,5,0,0,0,.09,1.25.62.62,0,0,0,.34.37,2.91,2.91,0,0,0,1.07.15V238h-4.48v-.33a3.14,3.14,0,0,0,1.09-.14.74.74,0,0,0,.35-.35,4.92,4.92,0,0,0,.09-1.28v-6.44a9.33,9.33,0,0,0-.09-1.67.71.71,0,0,0-.22-.41.59.59,0,0,0-.39-.13,2.37,2.37,0,0,0-.91.27l-.13-.27Zm13.53,0a3.31,3.31,0,0,1,2.32.79,2.31,2.31,0,0,1,.88,1.78,2.43,2.43,0,0,1-.47,1.36,6.92,6.92,0,0,1-2,1.64,11.15,11.15,0,0,1,2.05,1.88,3.15,3.15,0,0,1,.66,1.89,2.83,2.83,0,0,1-.95,2.15,3.57,3.57,0,0,1-2.52.89,3.38,3.38,0,0,1-2.64-1.06,2.74,2.74,0,0,1-.76-1.87,2.79,2.79,0,0,1,.53-1.57A7.8,7.8,0,0,1,392,232a8,8,0,0,1-1.83-1.86,2.88,2.88,0,0,1-.41-1.46,2.65,2.65,0,0,1,.9-2A3.34,3.34,0,0,1,393.06,225.79Zm9,0a3.13,3.13,0,0,1,2.46,1.4,7.39,7.39,0,0,1,1.36,4.69,9.24,9.24,0,0,1-.6,3.53,4.59,4.59,0,0,1-1.52,2.1,3.12,3.12,0,0,1-1.79.66,3.29,3.29,0,0,1-2.84-2,8.19,8.19,0,0,1-1-4.09,9.07,9.07,0,0,1,.62-3.51,5,5,0,0,1,1.63-2.2A2.77,2.77,0,0,1,402.1,225.79Zm-66.45.25H342v.33l-4,11.83h-1l3.55-10.73h-3.27a3,3,0,0,0-1.42.24,3,3,0,0,0-1.19,1.25l-.25-.1Zm57.43.26a2.1,2.1,0,0,0-1.46.52,1.62,1.62,0,0,0-.56,1.21,2.09,2.09,0,0,0,.23.92,3.71,3.71,0,0,0,.66.87L393.4,231a6.39,6.39,0,0,0,1.33-1.49,2.68,2.68,0,0,0,.28-1.25,1.94,1.94,0,0,0-.52-1.44A1.88,1.88,0,0,0,393.08,226.3Zm-41.15.07a1.4,1.4,0,0,0-1.07.54,4.57,4.57,0,0,0-.86,2.29,21.82,21.82,0,0,0-.22,3.09,11.36,11.36,0,0,0,.6,4c.34.87.83,1.3,1.5,1.3a1.58,1.58,0,0,0,1-.42,2.69,2.69,0,0,0,.77-1.43,17.31,17.31,0,0,0,.41-4.26,11.67,11.67,0,0,0-.42-3.4,3.09,3.09,0,0,0-.82-1.44A1.36,1.36,0,0,0,351.93,226.37Zm13.56,0a1.4,1.4,0,0,0-1.07.54,4.57,4.57,0,0,0-.86,2.29,21.82,21.82,0,0,0-.22,3.09,11.36,11.36,0,0,0,.6,4c.34.87.83,1.3,1.5,1.3a1.58,1.58,0,0,0,1-.42,2.69,2.69,0,0,0,.77-1.43,17.31,17.31,0,0,0,.41-4.26,11.67,11.67,0,0,0-.42-3.4,3.09,3.09,0,0,0-.82-1.44A1.36,1.36,0,0,0,365.49,226.37Zm36.6,0a1.4,1.4,0,0,0-1.07.54,4.57,4.57,0,0,0-.86,2.29,21.82,21.82,0,0,0-.22,3.09,11.36,11.36,0,0,0,.6,4c.34.87.83,1.3,1.5,1.3a1.58,1.58,0,0,0,1-.42,2.69,2.69,0,0,0,.77-1.43,17.31,17.31,0,0,0,.41-4.26,11.67,11.67,0,0,0-.42-3.4,3.09,3.09,0,0,0-.82-1.44A1.36,1.36,0,0,0,402.09,226.37Zm-16,3.29a1,1,0,1,1-.69.29A.94.94,0,0,1,386.06,229.66Zm6.37,2.63a4,4,0,0,0-1.08,1.34,3.47,3.47,0,0,0-.35,1.57,2.55,2.55,0,0,0,.62,1.81,2,2,0,0,0,1.57.68,2.1,2.1,0,0,0,1.52-.53,1.7,1.7,0,0,0,.58-1.3,2.06,2.06,0,0,0-.34-1.14A12.52,12.52,0,0,0,392.43,232.29Zm-6.39,4a1,1,0,0,1,.7.29,1,1,0,0,1,.29.7.94.94,0,0,1-.29.69,1,1,0,0,1-.7.28,1,1,0,0,1-.69-.28.94.94,0,0,1-.28-.69,1,1,0,0,1,1-1Zm-41,0a1,1,0,0,1,.7.29,1,1,0,0,1,.28.69,1,1,0,1,1-1.67-.7A1,1,0,0,1,345.09,236.25Zm13.56,0a1,1,0,0,1,.7.29,1,1,0,0,1,.28.69,1,1,0,1,1-1.67-.7A1,1,0,0,1,358.65,236.25Zm13.56,0a1,1,0,0,1,.7.29,1,1,0,0,1,.28.69,1,1,0,1,1-1.67-.7A1,1,0,0,1,372.21,236.25Z" transform="translate(-68.52 -53.4)"/><line class="cls-10" x1="348.42" y1="178.02" x2="457.03" y2="210.9"/><g class="cls-11"><path d="M487.73,242.17a3.83,3.83,0,0,1,3.08-.82,1.94,1.94,0,0,1,1,.66,2.24,2.24,0,0,1,.39,1.26,4.89,4.89,0,0,1-.3,1.6l-1,3.28a2.85,2.85,0,0,0-.2,1,.75.75,0,0,0,.2.42,1.67,1.67,0,0,0,.72.36l-.09.3-3.8-1.19.09-.3.16.05a1.39,1.39,0,0,0,.8.07.93.93,0,0,0,.45-.39,4.41,4.41,0,0,0,.28-.78l1-3.14a3.4,3.4,0,0,0,.21-1.61,1,1,0,0,0-.77-.76,2.89,2.89,0,0,0-2.33.46l-1.27,4.05a2.68,2.68,0,0,0-.21,1,.73.73,0,0,0,.21.45,2,2,0,0,0,.8.38l-.1.3-3.8-1.2.1-.3.17.06a1,1,0,0,0,.88-.05,2.23,2.23,0,0,0,.56-1.07l.9-2.85a13.06,13.06,0,0,0,.47-1.71.8.8,0,0,0-.06-.47.59.59,0,0,0-.32-.22,1.54,1.54,0,0,0-.6-.05l0-.34,2.61-.21.36.11Zm-8.93-1.71,3.55,1.12a3.24,3.24,0,0,0,.15-1.09,1.76,1.76,0,0,0-.39-.94,1.65,1.65,0,0,0-.78-.54,1.79,1.79,0,0,0-1.42.15A2.42,2.42,0,0,0,478.8,240.46Zm-.16.49a4.12,4.12,0,0,0,0,2.94,2.61,2.61,0,0,0,1.66,1.59,2.22,2.22,0,0,0,1.44,0,3.25,3.25,0,0,0,1.39-1.12l.2.25a4.23,4.23,0,0,1-1.68,1.76,2.83,2.83,0,0,1-2.42.28,3.29,3.29,0,0,1-2-1.82,4.35,4.35,0,0,1-.07-3.21,4.59,4.59,0,0,1,2-2.75,3.42,3.42,0,0,1,2.88-.31,3,3,0,0,1,1.86,1.52,3.29,3.29,0,0,1,.11,2.54Zm-2.16-6.64-.8,2.53,1.8.56-.19.59-1.79-.57-1.57,5a1.8,1.8,0,0,0-.1,1.08.7.7,0,0,0,.47.43,1,1,0,0,0,.59,0,1.2,1.2,0,0,0,.56-.38l.33.1a2.73,2.73,0,0,1-1.22,1,1.85,1.85,0,0,1-1.24.07,1.53,1.53,0,0,1-.69-.45,1.33,1.33,0,0,1-.35-.78,3.56,3.56,0,0,1,.21-1.29l1.63-5.16-1.22-.38.09-.28a3.58,3.58,0,0,0,1.14-.33,5.36,5.36,0,0,0,1.19-.77,11.4,11.4,0,0,0,.9-1Zm-4.63,1.07L471,238l-.28-.09a3.5,3.5,0,0,0-.29-1.93,1.91,1.91,0,0,0-1.13-.85,1.48,1.48,0,0,0-1,0,1,1,0,0,0-.58.58,1.29,1.29,0,0,0,0,.89,3.22,3.22,0,0,0,.83,1.06l1,1a2.61,2.61,0,0,1,1,2.72,2.16,2.16,0,0,1-1.32,1.44,2.94,2.94,0,0,1-2,.09,6.38,6.38,0,0,1-1.53-.76,1.67,1.67,0,0,0-.43-.23.35.35,0,0,0-.37.12l-.27-.08.86-2.74.28.08a3.24,3.24,0,0,0,.34,2.05,2.26,2.26,0,0,0,1.29,1.07,1.4,1.4,0,0,0,1,0,1.1,1.1,0,0,0,.62-.7,1.33,1.33,0,0,0-.1-1.1,7.19,7.19,0,0,0-1.3-1.51,5,5,0,0,1-1.25-1.59,2,2,0,0,1,0-1.32,2.19,2.19,0,0,1,1.15-1.38,2.38,2.38,0,0,1,1.88-.11,3.85,3.85,0,0,1,1,.54,2.69,2.69,0,0,0,.53.3.37.37,0,0,0,.23,0,.76.76,0,0,0,.25-.21Zm-7.12-2.24-1.94,6.17a2.76,2.76,0,0,0-.2,1,.77.77,0,0,0,.2.46,1.7,1.7,0,0,0,.71.35l-.09.3-3.74-1.17.1-.31a1.68,1.68,0,0,0,.79.13.8.8,0,0,0,.42-.26,2.76,2.76,0,0,0,.41-.93l.94-3a11.42,11.42,0,0,0,.43-1.64.61.61,0,0,0-.07-.43.48.48,0,0,0-.31-.21,1.79,1.79,0,0,0-.61-.06l0-.34,2.61-.21Zm.57-4.24a.87.87,0,0,1,.52.44.89.89,0,0,1,.06.68.87.87,0,0,1-.44.52.85.85,0,0,1-.68.07.89.89,0,0,1-.52-.45.81.81,0,0,1-.06-.68.86.86,0,0,1,.43-.52A.92.92,0,0,1,465.3,228.9Zm-5.94,7.78.25.15-1.94,2.78-8.8-2.78.1-.31.42.14a1.2,1.2,0,0,0,1.18-.15,2.77,2.77,0,0,0,.57-1.18l2.31-7.34a2.46,2.46,0,0,0,.18-1.4,1.28,1.28,0,0,0-.85-.68l-.43-.13.1-.31,5.14,1.62-.09.31a3.32,3.32,0,0,0-1.33-.24,1.16,1.16,0,0,0-.64.29,4,4,0,0,0-.53,1.24l-2.25,7.15a2.43,2.43,0,0,0-.17,1,.64.64,0,0,0,.23.36,5.56,5.56,0,0,0,1.28.5l.83.26a6.29,6.29,0,0,0,1.9.38A2.41,2.41,0,0,0,458,238,6,6,0,0,0,459.36,236.68Z" transform="translate(-68.52 -53.4)"/></g><g class="cls-12"><text class="cls-13" transform="translate(359.33 111.62)">L<tspan class="cls-14" x="11" y="0">i</tspan><tspan x="16.05" y="0">sten</tspan></text></g><g class="cls-12"><text class="cls-13" transform="translate(358.03 236.09)">L<tspan class="cls-14" x="11" y="0">i</tspan><tspan x="16.05" y="0">sten</tspan></text></g><path class="cls-15" d="M288.66,172.59l5.35-4.05-6.45-1.85ZM193.4,188.12l95.84-17.9-.29-1.53-95.83,17.89Z" transform="translate(-68.52 -53.4)"/><path class="cls-15" d="M198.58,188.45l-5.32,4.08,6.46,1.81Zm95.28-16.12L198,190.81l.3,1.54,95.84-18.48Z" transform="translate(-68.52 -53.4)"/><path class="cls-15" d="M692.84,165.54l6,3-6,3Zm-59.06,2.22h60.06v1.56H633.78Z" transform="translate(-68.52 -53.4)"/><path class="cls-15" d="M638.94,176.1l-6-3,6-3Zm59.89-2.22H637.94v-1.56h60.89Z" transform="translate(-68.52 -53.4)"/><path class="cls-16" d="M290,299.58l4.13-5.28-6.71-.14ZM187.35,345.85l102.57-48.7-.67-1.41-102.56,48.7Z" transform="translate(-68.52 -53.4)"/><path class="cls-16" d="M191.13,345.11l-4.11,5.3,6.71.11ZM293.76,298.4,191.19,347.55l.68,1.4L294.44,299.8Z" transform="translate(-68.52 -53.4)"/><path class="cls-17" d="M293.29,186.91l1.12-6.61-6,3.07ZM181.65,335.82l110.44-151-1.26-.92-110.44,151Z" transform="translate(-68.52 -53.4)"/><path class="cls-17" d="M185,331.74l-1.11,6.61,6-3.08Zm111.41-148.9-110.2,151,1.26.92,110.2-151Z" transform="translate(-68.52 -53.4)"/><path class="cls-17" d="M501.56,182.16l4.36-5.1-6.69-.43ZM413.4,217l88.22-37.23-.61-1.43L412.8,215.52Z" transform="translate(-68.52 -53.4)"/><path class="cls-17" d="M417.46,215.37l-4.36,5.1,6.69.42Zm90.76-36L417.4,217.8l.61,1.44,90.82-38.46Z" transform="translate(-68.52 -53.4)"/><path class="cls-17" d="M574.5,341.34l-3-6-3,6Zm-2.22,34.31V340.34h-1.56v35.31Z" transform="translate(-68.52 -53.4)"/><path class="cls-17" d="M578.82,369.39l-3,6-3-6Zm-2.22-33.21v34.21H575V336.18Z" transform="translate(-68.52 -53.4)"/><path class="cls-15" d="M329.85,362.22l6,3-6,3Zm-22.35,2.22h23.35V366H307.5Z" transform="translate(-68.52 -53.4)"/><path class="cls-17" d="M329.85,393.18l6,3-6,3ZM307.5,395.4h23.35V397H307.5Z" transform="translate(-68.52 -53.4)"/><path class="cls-16" d="M329.85,424.14l6,3-6,3Zm-22.35,2.22h23.35v1.56H307.5Z" transform="translate(-68.52 -53.4)"/><g class="cls-12"><text class="cls-13" transform="translate(277.82 318.05)"><tspan class="cls-18">V</tspan><tspan x="10.93" y="0">a</tspan><tspan class="cls-19" x="18.92" y="0">l</tspan><tspan x="23.99" y="0">id</tspan></text></g><g class="cls-12"><text class="cls-13" transform="translate(277.82 349.08)">Inv<tspan class="cls-20" x="23.99" y="0">a</tspan><tspan x="32.02" y="0">l</tspan><tspan class="cls-21" x="37.02" y="0">i</tspan><tspan x="42.08" y="0">d</tspan></text></g><g class="cls-12"><text class="cls-13" transform="translate(277.82 380.09)">Red<tspan class="cls-14" x="29" y="0">i</tspan><tspan x="34.05" y="0">re</tspan><tspan class="cls-22" x="48.03" y="0">c</tspan><tspan x="56.11" y="0">t</tspan><tspan class="cls-23" x="61.11" y="0"> </tspan><tspan x="65.47" y="0">to 443</tspan></text></g><rect class="cls-7" x="232.14" y="1.5" width="352.68" height="461.04" rx="58.78" ry="58.78"/><path class="cls-5" d="M458,495.77a5,5,0,0,1,2,.46,2,2,0,0,0,.69.22.53.53,0,0,0,.38-.13,1.19,1.19,0,0,0,.23-.55h.33v4.12h-.33a5.09,5.09,0,0,0-.57-1.89,3,3,0,0,0-1.16-1.12,3.31,3.31,0,0,0-1.57-.41,2.14,2.14,0,0,0-1.51.56,1.68,1.68,0,0,0-.6,1.27,1.52,1.52,0,0,0,.38,1,9.75,9.75,0,0,0,2.6,1.76,20.15,20.15,0,0,1,2.28,1.37,3.49,3.49,0,0,1,.94,1.13,3,3,0,0,1,.33,1.37,3.08,3.08,0,0,1-1.05,2.33,3.84,3.84,0,0,1-2.71,1,6,6,0,0,1-1-.08,11.24,11.24,0,0,1-1.13-.32,5.35,5.35,0,0,0-1.09-.28.44.44,0,0,0-.34.14,1,1,0,0,0-.19.54h-.33v-4.09H455a5.61,5.61,0,0,0,.61,1.92,2.92,2.92,0,0,0,1.18,1.06,3.71,3.71,0,0,0,1.75.42,2.49,2.49,0,0,0,1.73-.57,1.8,1.8,0,0,0,.64-1.38,1.85,1.85,0,0,0-.24-.88,2.65,2.65,0,0,0-.75-.84,20.19,20.19,0,0,0-1.87-1.12,18,18,0,0,1-2.18-1.37,3.65,3.65,0,0,1-1-1.12,2.82,2.82,0,0,1-.33-1.36,3,3,0,0,1,1-2.21A3.55,3.55,0,0,1,458,495.77Zm9.73,3.89a3,3,0,0,1,2.22.89,3.28,3.28,0,0,1,.87,2.39h-5.56a4.1,4.1,0,0,0,.87,2.81,2.64,2.64,0,0,0,2.06,1,2.24,2.24,0,0,0,1.38-.43,3.2,3.2,0,0,0,1-1.49l.27.17a4.18,4.18,0,0,1-1.07,2.2,2.88,2.88,0,0,1-2.22,1,3.24,3.24,0,0,1-2.49-1.13,4.3,4.3,0,0,1-1-3,4.56,4.56,0,0,1,1.06-3.22A3.46,3.46,0,0,1,467.73,499.66Zm23,0a3,3,0,0,1,2.22.89,3.28,3.28,0,0,1,.87,2.39H488.3a4.1,4.1,0,0,0,.87,2.81,2.64,2.64,0,0,0,2.06,1,2.24,2.24,0,0,0,1.38-.43,3.2,3.2,0,0,0,1-1.49l.27.17a4.18,4.18,0,0,1-1.07,2.2,2.88,2.88,0,0,1-2.22,1,3.24,3.24,0,0,1-2.49-1.13,4.3,4.3,0,0,1-1-3,4.56,4.56,0,0,1,1.06-3.22A3.46,3.46,0,0,1,490.77,499.66Zm-16.84,0h.37v1.81c.67-1.21,1.37-1.81,2.07-1.81a1.14,1.14,0,0,1,.8.29.9.9,0,0,1,.32.69.79.79,0,0,1-.23.57.71.71,0,0,1-.54.24,1.14,1.14,0,0,1-.69-.3,1.18,1.18,0,0,0-.57-.3.55.55,0,0,0-.34.17,4.11,4.11,0,0,0-.82,1.19v3.86a2.42,2.42,0,0,0,.17,1,.84.84,0,0,0,.4.39,1.74,1.74,0,0,0,.84.16V508h-4.13v-.32a1.73,1.73,0,0,0,.92-.19.75.75,0,0,0,.31-.45,4.57,4.57,0,0,0,0-.85V503a12.45,12.45,0,0,0-.06-1.68.66.66,0,0,0-.21-.39.6.6,0,0,0-.38-.12,1.72,1.72,0,0,0-.62.13l-.08-.32Zm23,0h.37v1.81c.67-1.21,1.37-1.81,2.07-1.81a1.14,1.14,0,0,1,.8.29.9.9,0,0,1,.32.69.79.79,0,0,1-.23.57.71.71,0,0,1-.54.24,1.14,1.14,0,0,1-.69-.3,1.18,1.18,0,0,0-.57-.3.55.55,0,0,0-.34.17,4.11,4.11,0,0,0-.82,1.19v3.86a2.42,2.42,0,0,0,.17,1,.84.84,0,0,0,.4.39,1.74,1.74,0,0,0,.84.16V508h-4.13v-.32a1.73,1.73,0,0,0,.92-.19.75.75,0,0,0,.31-.45,4.57,4.57,0,0,0,0-.85V503a12.45,12.45,0,0,0-.06-1.68.66.66,0,0,0-.21-.39.6.6,0,0,0-.38-.12,1.72,1.72,0,0,0-.62.13l-.08-.32Zm-19.44.24h3.79v.32h-.25a.76.76,0,0,0-.52.17.58.58,0,0,0-.18.45,1.79,1.79,0,0,0,.19.73l1.87,4.44,1.88-4.61a2.32,2.32,0,0,0,.2-.75.27.27,0,0,0-.07-.2.45.45,0,0,0-.25-.18,2.45,2.45,0,0,0-.6,0v-.32h2.63v.32a1.21,1.21,0,0,0-.64.19,2.15,2.15,0,0,0-.55.88l-2.86,6.9h-.36l-2.87-6.79a2.54,2.54,0,0,0-.37-.68,1.43,1.43,0,0,0-.45-.35,2.51,2.51,0,0,0-.59-.15Zm-10.29.37a1.81,1.81,0,0,0-1.31.57,2.48,2.48,0,0,0-.67,1.58H469a3.29,3.29,0,0,0-.18-1.09,1.7,1.7,0,0,0-.65-.77A1.66,1.66,0,0,0,467.24,500.28Zm23,0a1.81,1.81,0,0,0-1.31.57,2.48,2.48,0,0,0-.67,1.58H492a3.29,3.29,0,0,0-.18-1.09,1.7,1.7,0,0,0-.65-.77A1.66,1.66,0,0,0,490.28,500.28Z" transform="translate(-68.52 -53.4)"/><path class="cls-6" d="M458,495.77a5,5,0,0,1,2,.46,2,2,0,0,0,.69.22.53.53,0,0,0,.38-.13,1.19,1.19,0,0,0,.23-.55h.33v4.12h-.33a5.09,5.09,0,0,0-.57-1.89,3,3,0,0,0-1.16-1.12,3.31,3.31,0,0,0-1.57-.41,2.14,2.14,0,0,0-1.51.56,1.68,1.68,0,0,0-.6,1.27,1.52,1.52,0,0,0,.38,1,9.75,9.75,0,0,0,2.6,1.76,20.15,20.15,0,0,1,2.28,1.37,3.49,3.49,0,0,1,.94,1.13,3,3,0,0,1,.33,1.37,3.08,3.08,0,0,1-1.05,2.33,3.84,3.84,0,0,1-2.71,1,6,6,0,0,1-1-.08,11.24,11.24,0,0,1-1.13-.32,5.35,5.35,0,0,0-1.09-.28.44.44,0,0,0-.34.14,1,1,0,0,0-.19.54h-.33v-4.09H455a5.61,5.61,0,0,0,.61,1.92,2.92,2.92,0,0,0,1.18,1.06,3.71,3.71,0,0,0,1.75.42,2.49,2.49,0,0,0,1.73-.57,1.8,1.8,0,0,0,.64-1.38,1.85,1.85,0,0,0-.24-.88,2.65,2.65,0,0,0-.75-.84,20.19,20.19,0,0,0-1.87-1.12,18,18,0,0,1-2.18-1.37,3.65,3.65,0,0,1-1-1.12,2.82,2.82,0,0,1-.33-1.36,3,3,0,0,1,1-2.21A3.55,3.55,0,0,1,458,495.77Zm9.73,3.89a3,3,0,0,1,2.22.89,3.28,3.28,0,0,1,.87,2.39h-5.56a4.1,4.1,0,0,0,.87,2.81,2.64,2.64,0,0,0,2.06,1,2.24,2.24,0,0,0,1.38-.43,3.2,3.2,0,0,0,1-1.49l.27.17a4.18,4.18,0,0,1-1.07,2.2,2.88,2.88,0,0,1-2.22,1,3.24,3.24,0,0,1-2.49-1.13,4.3,4.3,0,0,1-1-3,4.56,4.56,0,0,1,1.06-3.22A3.46,3.46,0,0,1,467.73,499.66Zm23,0a3,3,0,0,1,2.22.89,3.28,3.28,0,0,1,.87,2.39H488.3a4.1,4.1,0,0,0,.87,2.81,2.64,2.64,0,0,0,2.06,1,2.24,2.24,0,0,0,1.38-.43,3.2,3.2,0,0,0,1-1.49l.27.17a4.18,4.18,0,0,1-1.07,2.2,2.88,2.88,0,0,1-2.22,1,3.24,3.24,0,0,1-2.49-1.13,4.3,4.3,0,0,1-1-3,4.56,4.56,0,0,1,1.06-3.22A3.46,3.46,0,0,1,490.77,499.66Zm-16.84,0h.37v1.81c.67-1.21,1.37-1.81,2.07-1.81a1.14,1.14,0,0,1,.8.29.9.9,0,0,1,.32.69.79.79,0,0,1-.23.57.71.71,0,0,1-.54.24,1.14,1.14,0,0,1-.69-.3,1.18,1.18,0,0,0-.57-.3.55.55,0,0,0-.34.17,4.11,4.11,0,0,0-.82,1.19v3.86a2.42,2.42,0,0,0,.17,1,.84.84,0,0,0,.4.39,1.74,1.74,0,0,0,.84.16V508h-4.13v-.32a1.73,1.73,0,0,0,.92-.19.75.75,0,0,0,.31-.45,4.57,4.57,0,0,0,0-.85V503a12.45,12.45,0,0,0-.06-1.68.66.66,0,0,0-.21-.39.6.6,0,0,0-.38-.12,1.72,1.72,0,0,0-.62.13l-.08-.32Zm23,0h.37v1.81c.67-1.21,1.37-1.81,2.07-1.81a1.14,1.14,0,0,1,.8.29.9.9,0,0,1,.32.69.79.79,0,0,1-.23.57.71.71,0,0,1-.54.24,1.14,1.14,0,0,1-.69-.3,1.18,1.18,0,0,0-.57-.3.55.55,0,0,0-.34.17,4.11,4.11,0,0,0-.82,1.19v3.86a2.42,2.42,0,0,0,.17,1,.84.84,0,0,0,.4.39,1.74,1.74,0,0,0,.84.16V508h-4.13v-.32a1.73,1.73,0,0,0,.92-.19.75.75,0,0,0,.31-.45,4.57,4.57,0,0,0,0-.85V503a12.45,12.45,0,0,0-.06-1.68.66.66,0,0,0-.21-.39.6.6,0,0,0-.38-.12,1.72,1.72,0,0,0-.62.13l-.08-.32Zm-19.44.24h3.79v.32h-.25a.76.76,0,0,0-.52.17.58.58,0,0,0-.18.45,1.79,1.79,0,0,0,.19.73l1.87,4.44,1.88-4.61a2.32,2.32,0,0,0,.2-.75.27.27,0,0,0-.07-.2.45.45,0,0,0-.25-.18,2.45,2.45,0,0,0-.6,0v-.32h2.63v.32a1.21,1.21,0,0,0-.64.19,2.15,2.15,0,0,0-.55.88l-2.86,6.9h-.36l-2.87-6.79a2.54,2.54,0,0,0-.37-.68,1.43,1.43,0,0,0-.45-.35,2.51,2.51,0,0,0-.59-.15Zm-10.29.37a1.81,1.81,0,0,0-1.31.57,2.48,2.48,0,0,0-.67,1.58H469a3.29,3.29,0,0,0-.18-1.09,1.7,1.7,0,0,0-.65-.77A1.66,1.66,0,0,0,467.24,500.28Zm23,0a1.81,1.81,0,0,0-1.31.57,2.48,2.48,0,0,0-.67,1.58H492a3.29,3.29,0,0,0-.18-1.09,1.7,1.7,0,0,0-.65-.77A1.66,1.66,0,0,0,490.28,500.28Z" transform="translate(-68.52 -53.4)"/></svg>